<svg xmlns="http://www.w3.org/2000/svg" width="800" height="800" version="1.0" viewBox="0 0 600 600" style=""><g transform="matrix(.1 0 0 -.1 0 600)"><path d="M2965 5950c-31-61-31-62 0-154 14-41 25-82 25-91 0-29-17-6-24 32-4 21-14 54-24 73-15 30-22 34-61 37-38 2-42 1-35-15 4-9 7-27 7-39-1-16 10-29 38-45 40-22 79-85 79-124q-1.5-18-21 21c-39 79-92 104-142 65-45-36-35-120 15-120 10 0 18-5 18-10 0-6-10-8-22-5-13 3-30 1-38-5-13-8-12-12 8-26 17-12 22-24 20-47-4-41-33-49-42-12-13 52-99 60-112 10-9-35 13-58 48-51 33 6 33 6 14-39-14-33-34-51-22-20 3 8-4 24-17 36l-22 20-3-23c-11-79-39-122-125-185-115-85-131-221-35-297 18-14 27-26 21-26-16 0-17-32-1-48 17-17 38-15 38 3 0 19 14 19 29 2 24-30 23-71-3-120-32-59-33-81-4-101 38-27 80 18 47 51-8 8-7 17 5 34 10 16 16 44 16 84 0 59-14 97-58 168-15 24-15 29-2 37 8 5 27 10 41 10 28 0 59 27 59 51 0 8 5 20 11 26 18 18 2 46-22 40-13-3-29 3-47 19l-27 25 35-6c19-4 45-13 56-20 12-8 24-11 28-8 10 10 7 48-5 60-9 9 1 18 37 36 54 27 161 133 188 185 10 19 20 32 22 29 11-10-37-85-110-172-75-89-132-184-156-258-11-35-14-38-41-32-34 8-35 4-11-32 16-25 17-79 20-693 1-366 0-675-3-688-8-31-81-64-123-56-28 6-30 9-26 34 7 31-19 48-42 29-11-9-19-8-34 6-14 13-17 21-9 25 20 13 5 45-21 45-20 0-26 7-33 36-19 80 54 159 118 128 41-20 42-36 1-31-88 10-86-133 4-153 16-3 38-1 49 5 19 10 20 8 14-21-7-37 15-60 47-52 24 6 24 7 4 38-13 21-14 27-1 52 54 106 6 210-102 221-59 5-103-10-131-46-22-27-26-22-10 9 17 31 83 59 143 59 56 0 93 17 85 41-3 8-18 14-35 14-22 0-29-3-22-11 6-8 4-14-7-18-22-8-26-8-20 3 4 5 2 11-3 13-5 1 2 12 17 22 14 11 22 14 18 8-11-17 5-15 41 8 31 18 55 51 51 67-1 4 4 27 10 50 15 52 5 106-32 159-27 40-33 69-16 79s33-5 21-19-5-26 15-26c19 0 27 36 12 59-10 16-10 23 0 33 6 6 12 28 11 48 0 33-1 34-10 10-6-14-30-43-55-66-44-41-53-68-34-103 7-15 4-20-15-29-30-14-33-47-6-62 16-8 23-6 35 12l15 21 11-27c14-37 13-50-6-94-20-48-52-82-141-148-79-59-112-99-123-149-10-45 7-122 31-138 10-8 16-17 11-22-4-5-1-5 6-1 8 5 12 1 12-11 0-15 2-16 11-3 9 12 10 12 5-4-4-10-1-26 6-35 11-14 11-14-3-4-8 7-26 11-39 8-12-2-20-2-16 2 20 20-73 73-128 73-71-1-115-34-215-165-54-70-121-115-172-115-40 0-71 23-44 34 21 8 19 33-4 46-15 7-23 6-35-6-9-8-16-20-16-24 0-5-11-5-24 1-36 17-71 4-113-42-21-23-47-45-58-50-16-6-13-8 15-8 20-1 41 4 48 11 9 9 15 9 24 0 17-17 57-15 64 3 9 23-5 38-22 24s-29-6-21 16c8 20 39 19 68-4 70-54 135-64 204-31 48 23 65 37 88 72 19 31 22 42 7 33-5-3-10-4-10-1 0 8 31 36 40 36 12 0 3-44-10-48-5-2-10-15-10-28 0-17 6-24 19-24 28 0 34 14 37 86 4 82 36 144 73 144 13 0 11-4-5-18-64-51-68-150-10-208 43-43 95-53 157-31 55 20 86 22 91 5 6-17 28 0 28 22 0 24-30 41-59 33-19-5-20-3-13 17 20 55-22 110-84 110-48 0-77-31-69-73l6-32-21 24c-50 58 4 141 93 141 41 0 59-12 52-33-8-20 27-41 42-26 7 7 17 7 32-3 23-14 28-28 10-28-6 0-9-10-7-22 2-18 10-23 33-23 28-1 30-3 33-46 2-38-2-52-23-78l-27-31h-525c-465 0-524 2-513 15 10 12 9 20-4 40-18 27-35 32-54 13-17-17-15-39 6-54 38-29-16-14-73 20-31 19-63 32-71 29-10-3-12 0-9 10 8 20-21 30-48 15-12-6-34-24-49-40-29-31-62-36-96-12-30 21-28 34 7 34 40 0 75 44 67 84s-32 64-76 77c-68 21-121-10-265-150-67-66-91-81-129-81-34 0-34-27-1-36 30-7 25-18-14-32-26-9-28-8-24 9 12 43-56 69-77 30-17-33-11-59 19-82 20-15 27-27 23-41-4-15-1-19 14-16 10 2 21 13 24 25s21 32 40 45 66 65 104 116c42 56 72 88 76 82 5-8 9-7 13 4 4 9 12 16 19 16 10 0 10-2-1-9-10-7-11-9-1-13 15-5 23-38 9-38-5 0-12 6-15 14-13 33-41 5-94-95-46-88-63-109-104-136-56-38-96-43-96-13 0 14-5 18-17 13-11-4-24 3-39 22l-23 29-6-30c-3-16-8-39-11-51-9-46 85-59 159-22l42 21-44-45c-24-25-54-48-67-51-21-6-24-12-24-56s3-50 24-56c13-3 43-25 66-49 24-24 48-41 53-38 6 3 7 1 3-5-4-7-21-3-49 14-27 15-58 24-88 24-52 0-87-19-73-41 4-8 7-24 6-36-4-30 17-39 34-14 8 12 24 21 35 21 10 0 19 7 19 15 0 21 33 19 78-4 51-26 74-54 117-141 21-41 46-88 57-103 11-16 18-30 15-33s-33 34-67 81c-35 48-81 100-104 117-22 16-43 39-46 51s-14 23-24 25c-15 3-18-1-14-16 4-14-3-26-23-41-47-35-36-101 17-101 28 0 47 24 39 49-6 19-4 20 24 10 41-14 46-25 16-33-33-9-33-36 1-36 38 0 62-15 129-81 143-140 201-172 270-149 41 14 75 53 75 87 0 32-42 73-75 73-32 0-29 20 6 38 33 17 69 7 99-28 14-16 37-32 52-36 23-5 29-2 37 17 5 13 10 21 10 16 1-7 78 31 113 55 9 7 21 8 25 4 4-5 2-11-4-13-18-6-16-50 2-57 35-13 77 32 54 60-10 12 20 14 217 15 514 1 819-3 834-11 25-13 42-61 38-106-3-35-5-38-33-39-23 0-31-5-33-22-2-14 2-23 9-23 9 0 8-6-4-17-10-10-32-18-50-18-25 0-32-4-32-20 0-26-13-35-53-35-72 0-126 60-106 118 12 34 37 43 29 10-16-64 77-98 131-47 21 20 25 31 22 67-3 38-1 43 16 38 11-3 28-1 38 5 22 12 25 59 3 59-8 0-15-4-15-10 0-15-42-12-83 5-94 39-186-9-202-105-8-47 22-122 55-140 12-6 20-14 17-17-9-9-48 22-69 55-14 22-20 50-20 85 0 67-12 97-38 97-15 0-20-7-20-26 0-17 4-24 13-21q12 4.5 12-24c1-16-3-29-7-29s-8 5-8 11c0 5-4 8-9 5-5-4-7 2-4 13 6 24-48 86-98 112-43 21-119 25-152 8-12-7-35-23-50-35-33-27-65-31-74-9-8 22 4 30 21 16 19-16 32 4 16 24-15 18-42 19-58 3-9-9-15-9-24 0-7 7-28 12-47 11-29 0-32-2-16-8 11-5 36-27 56-49 40-45 82-61 110-43 25 15 26 14 32-9 3-14 14-20 31-20 34 0 46 28 20 47-16 12-17 15-4 24 8 5 36 8 62 6 61-5 101-36 177-135 32-42 67-85 78-94 28-26 88-48 128-48 46 0 115 35 115 58 0 11 8 18 20 18 10 0 17-2 15-4-2-3 3-11 12-20 14-14 13-16-6-24-35-12-61-67-61-126 0-82 25-117 148-209 84-62 132-129 132-182 0-20-5-43-10-51-9-13-12-13-21 2-13 24-36 23-49-1-11-21 9-51 35-51 11 0 11-6-2-31-19-38-6-76 39-109 16-12 36-36 43-53l14-32 1 33c0 18-5 42-10 52-7 14-7 25 1 38 7 11 9 27 6 36-9 22-43 16-39-7 2-9-2-17-8-17-21 0-22 30-1 62 44 69 53 99 46 154-10 83-87 177-131 160-8-3-14 1-14 10s-5 12-12 8-8-3-4 4 19 12 34 12c19 0 23-3 13-9s-5-11 19-16c45-10 63 10 31 36-16 13-39 19-78 19-59 0-125 27-138 57-5 10-10 29-11 43-3 24-2 24 9 5 11-20 13-25 16-45 4-33 132-53 178-27 66 37 87 112 54 196-20 50-21 55-6 72 15 16 15 18-3 28-29 16-56-12-48-50 5-27 4-28-19-17-33 15-81-6-100-43-20-38-19-51 6-84 17-21 28-26 51-23 35 6 32-12-5-30-23-11-32-11-61 3-40 19-56 51-56 110 0 40 2 44 28 47 24 3 27 7 25 34-3 39 19 63 42 44 21-18 48 6 41 36-5 18-1 22 27 27 39 6 104-18 117-44 6-11 10-276 10-694 0-573-2-681-15-711-15-35-15-35 11-32 23 3 28-3 44-50 27-76 58-125 145-232 66-81 124-170 111-170-2 0-25 29-50 64-52 73-115 131-161 148-31 11-32 13-27 56l5 44-24-15c-33-21-86-31-94-18-3 6 0 11 8 11s20 6 26 14c6 7 22 11 36 8 27-5 33 13 16 46-5 9-12 25-15 35-3 11-15 21-26 24s-20 9-20 13c0 5-9 6-20 3-32-8-35 23-7 66 33 50 49 112 41 159-8 43-36 103-59 126-15 15-15 17-1 32 12 12 13 20 5 35-16 31-61 22-73-14-11-30-12-27 52-122 33-50 42-105 22-135-9-13-12-13-24 3-16 21-30 22-47 1-10-12-10-20-1-34 9-16 8-20-8-25-11-3-29-19-40-36-65-91-37-181 88-279 65-50 92-93 92-142 0-21 5-38 10-38 20 0 50 39 43 57-5 14-3 15 6 7 7-7 14-26 15-43 2-25-1-30-15-26-9 3-27-4-40-15l-24-20 28-25c36-32 52-32 87 4 25 24 32 27 46 16 17-12 16-16-4-63-25-57-28-115-9-138 35-43 49-54 71-54 34 0 71 33 90 81 20 48 30 48 16 0-14-51-38-81-75-97-21-8-34-21-34-31 1-10-2-28-6-41-7-21-5-23 31-19 34 4 41 10 61 47 13 24 23 51 23 61s4 21 10 24c17 11 11-27-15-90-14-33-25-68-25-79 0-22 50-116 61-116 17 0 61 103 56 129-8 37-51 158-60 167-11 11-9 54 3 54 6 0 10-7 10-15 0-31 41-143 59-159 9-9 32-19 51-22 31-7 33-6 26 17-4 13-8 32-7 42 0 10-10 22-22 26-31 13-72 60-86 100-17 51-7 48 20-6 29-58 66-82 106-67 38 13 53 56 28 84-27 30-79 24-54-6 12-15 4-34-15-34s-36 23-51 67c-13 36-14 37-66 37-52 1-53 1-62-34-10-39-33-70-53-70-19 0-28 20-15 33 18 18 13 27-14 27-14 0-30-9-37-20-16-25-30-26-21-2 8 21 32 37 57 37 23 0 47 35 29 42-8 3-9 12-1 34 6 17 8 51 5 75l-5 45 23-21c13-12 29-35 35-51 11-26 17-29 59-29 44 0 47 2 70 44 34 65 51 67 44 7-3-29-1-57 7-71 10-18 9-24-1-31-19-11 1-44 27-45 11-1 25-2 32-3 7 0 19-16 27-34l14-32 1 48c0 29-8 63-20 87-24 47-25 56-4 64 9 4 28-4 46-19 16-14 38-25 49-25 22 0 59 34 59 54 0 15-35 32-57 28-18-4-17 62 1 77 11 9 16 9 22 0 4-8 3-9-4-5-20 12-14-35 6-50 26-21 32-17 32 21 0 54 23 88 100 151q193.5 156 72 282c-25 25-36 46-37 67 0 35-31 47-51 20-12-16-14-16-25 8-17 38-3 89 41 149 41 54 47 76 30 109-14 25-56 25-70 0-7-15-6-24 6-36 15-15 15-18-4-38-31-34-50-79-57-133-6-44-3-56 30-118 38-71 39-102 5-93-11 3-20 2-20-3 0-4-9-10-20-13s-23-13-26-24c-3-10-10-28-16-40-13-26-2-46 23-40 10 3 23-1 30-9 6-8 18-14 25-14 8 0 14-5 14-11 0-15-67-3-99 18l-24 15 5-43 4-44-50-25c-47-24-72-49-185-189-41-52-72-53-82-4-8 39-2 47 19 26 14-14 18-13 41 13 17 20 22 23 17 9-5-11-10-29-13-40-4-23-8-28 56 69 19 28 56 76 83 106 55 61 110 154 134 222 13 40 18 44 39 40 29-5 30-3 10 34-13 25-15 125-15 710v681l23 21c31 29 75 44 109 37 23-5 27-11 22-29-7-30 19-54 41-36 13 10 19 9 35-5 14-13 17-21 9-25-20-13-5-45 22-48 20-2 28-10 32-30 17-84-59-161-124-128-33 17-34 33-2 29 57-9 94 63 58 113-22 32-71 49-100 36-23-11-23-10-18 23 7 42-22 63-53 40-11-8-14-15-8-15 23 0 24-35 3-93-19-50-20-63-10-97 6-21 27-52 46-69 30-26 44-31 89-31 67 0 116 30 128 79 5 18 11 31 14 29 2-3-1-22-8-44-17-52-73-84-146-84-63 0-92-13-92-40 0-22 33-27 60-10 12 8 12 10-5 11-16 1-16 2 5 8 24 8 57-7 35-15-82-31-140-97-149-171-8-58 3-100 39-147 28-36 30-66 6-74-9-3-11 2-6 17 5 17 2 21-15 21-26 0-37-27-21-52 8-13 8-24 1-38-5-10-10-34-10-52l1-33 13 30c7 17 30 45 51 61 31 25 38 38 39 65 0 19-3 41-7 49-5 10 0 18 15 25 28 12 30 44 5 59-15 9-21 7-32-8-19-25-26-17-32 36-7 62 34 121 140 200 91 67 122 104 138 163 10 34 9 51-7 110-4 15 0 13 18-9 21-25 24-37 20-85-2-31-11-63-18-72-13-14-12-18 0-28s18-8 31 12 14 33 5 72c-6 26-9 49-7 52 9 9 37-80 37-117 0-32-4-40-19-40-42 0-52-62-12-75 61-19 89 61 56 156-10 28-12 45-5 51 5 4 8 6 6 2-2-3 4-24 15-47 19-44 25-112 10-135-10-16 9-62 25-62 6 0 19 9 30 21 18 20 18 22 0 67-10 26-18 57-18 70 0 12-4 22-8 22-12 0-20 29-10 35 11 7 30-27 34-58 1-12 10-39 19-61 9-21 17-42 17-45 0-19 51-52 108-70 34-10 62-16 61-12 0 3-10 35-22 71-21 62-24 66-82 97-33 18-66 30-73 28-7-3-10 0-7 5 3 6 1 10-6 10s-10 3-6 6c3 3 30-3 59-14 48-18 56-18 81-6 35 19 34 39-2 54-21 8-35 9-49 1-12-6-30-11-42-11-27 0-120 40-120 51 0 5 13 3 28-5 48-25 96-29 136-12 34 14 37 19 34 48-2 26-8 34-26 36-30 5-54-16-47-39 5-16 1-19-28-19-39 0-124 27-134 43-4 7 0 8 13 3 59-23 134-18 134 10 0 23-29 28-50 9-23-21-104-16-144 10-30 20-28 32 2 16s98-13 135 5c46 23 72 49 134 132q97.5 132 189 132c47 0 65-15 39-33-23-17-9-47 22-47q25.5 0 30 21c4 14 10 18 22 13 41-20 82-8 119 33 20 23 46 46 57 52 17 9 15 10-16 11-19 0-40-5-46-11-8-8-13-8-17 0-9 14-49 14-63 0-17-17-5-43 13-28 17 14 29 6 21-16-10-23-33-18-88 20-41 28-61 35-98 35-61-1-120-29-159-76-32-38-32-38-32-12 0 15-4 29-9 32-18 11-39-32-44-91-5-67-31-119-69-142l-23-14 21 24c76 84 67 187-19 239-38 24-85 25-134 5-43-18-80-19-85-3-6 17-28 0-28-22 0-23 34-43 58-36 15 5 17 1 14-28-5-43 10-72 48-91 54-28 121 14 105 66-10 32 18 19 29-13 20-58-34-118-106-118-40 0-53 9-53 35 0 16-7 20-32 20-18 0-40 8-50 18-12 11-13 17-4 17 7 0 11 9 9 23-2 17-10 22-33 22-29 1-30 2-30 53 1 42 6 57 25 77l25 25h435c648 2 614 2 601-14-23-28 19-73 54-60 18 7 20 45 3 62-21 21 5 13 57-18 28-16 58-30 68-30 9 0 17-6 17-14s4-17 9-20c15-10 69 15 85 39 19 29 60 39 93 23 37-18 41-38 8-38-15 0-37-11-52-26-20-20-24-31-19-56 13-65 71-96 145-78 39 9 65 28 151 109 114 106 135 121 174 121 34 0 34 27 1 36-30 8-25 19 16 33 28 10 30 9 24-10-13-39 43-67 73-37 28 28 1 98-36 98-8 0-10 9-6 26 6 22 4 25-12 22-10-2-21-13-24-25s-21-32-40-45-66-65-104-116c-38-50-71-90-74-88-2 3 5 17 16 33 11 15 36 62 57 103 43 87 66 115 117 141 45 23 78 25 78 4 0-8 9-15 19-15 11 0 27-9 35-21 17-25 38-16 34 14-1 12 2 28 6 36 25 40-79 54-154 20l-45-20 44 45c24 24 54 47 67 50 21 6 24 12 24 56s-3 50-24 56c-13 3-43 26-67 50l-44 45 45-20c52-24 118-27 145-7 15 11 17 17 7 28-6 8-9 18-6 21 4 3 3 18 0 33l-7 28-23-29c-15-19-28-26-39-22-12 5-17 1-17-13 0-26-29-26-78-1-51 26-66 45-125 157-50 95-78 121-92 87-3-9-3-18 0-21s5 0 5 7c0 25 20-1 30-40 10-35 8-45-9-75l-20-34h21c11 0 27 8 34 18 13 16 13 16 14-1 1-52 103-172 179-211 18-10 30-20 27-23-9-9-86 42-172 114-104 87-248 165-191 104 10-11 9-12-3-5-8 5-19 9-25 10-23 4-59 23-47 24 31 4 68 2 84-4 18-8 56 9 75 33 15 19 17 85 4 76-6-3-15 3-20 14-8 14-7 22 5 32s12 14 2 20c-10 7-10 9 0 9 7 0 15-7 19-16 4-10 8-12 13-5 3 7 36-28 76-81 38-51 85-103 104-116s37-33 40-45 14-23 24-25c15-3 18 1 14 16-4 14 3 26 23 41 47 35 36 101-17 101-28 0-48-24-41-50 6-24 8-24-39-3l-39 17 30 5c18 4 31 13 33 24s-2 17-10 16c-35-8-79 20-172 108-105 99-130 116-183 127-59 13-133-42-133-99 0-25 46-65 75-65 31 0 32-14 3-34-34-24-67-19-96 12-49 52-102 66-102 27 0-8-8-15-18-15s-39-13-65-30c-50-32-67-37-67-20 0 6 5 10 10 10 16 0 11 47-6 54-26 10-33 7-50-19-13-20-14-28-4-40 11-13-48-15-512-15h-525l-23 25c-19 20-24 37-25 77 0 51 1 52 30 53 33 0 48 30 23 46-18 13 17 34 57 34 23 0 30 4 30 20 0 26 13 35 53 35 90 0 144-82 91-141l-20-24 6 28c7 37-8 63-46 76-59 20-115-29-107-95 3-29 1-33-14-28-24 7-58-13-58-36 0-22 22-39 28-22 5 17 36 15 91-5 31-11 59-14 83-9 110 20 155 161 77 239-34 34-34 44 0 20 33-23 61-90 61-150 0-33 6-57 16-67 20-21 34-12 34 21 0 26 1 25 35-14 69-80 175-94 256-34 47 34 76 39 86 16 8-22-4-30-21-16-11 9-15 8-19-3-10-25 20-41 54-29 17 7 31 7 35 2 3-5 22-9 42-8 20 0 30 3 22 6s-36 27-61 54c-47 50-78 61-119 39-14-7-19-5-23 10-3 13-14 20-30 20-32 0-45-30-20-48 16-11 16-14 3-22-29-19-85-11-131 19-25 15-70 61-101 102-68 90-93 114-140 134-70 29-143 14-185-37-10-13-28-23-40-24-21 0-21 1-7 28 8 16 22 32 30 35s13 12 10 20-2 12 3 9c15-10 31 76 22 117-15 63-37 88-161 180-90 66-134 150-110 211l11 29 15-21c12-18 19-20 35-11 26 13 21 50-8 64-16 8-19 15-12 26 21 33 10 67-32 101-23 18-48 47-55 63l-13 30-1-35c0-20 6-42 12-48 10-10 10-17 0-33-16-26-6-61 16-57 11 2 16 11 14 27-3 16 1 22 10 19 24-8 20-47-10-90-17-24-33-58-37-76-13-65 49-202 92-202 7 0 13-4 13-9s-9-7-20-4q-19.5 4.5-27-12c-10-27 24-45 84-45 62 0 126-28 144-63l12-22-24 21c-37 33-64 44-109 44-50 0-92-20-118-57-29-43-32-82-11-145 19-57 17-88-5-88-6 0-3-7 8-15 31-24 60-2 53 41-5 32-4 33 14 23 47-25 119 24 119 80 0 15-7 37-16 50-13 18-24 22-50 19-39-5-41 10-3 30 68 35 143-46 121-130-7-26-13-32-30-30-26 4-40-22-23-42 8-10 6-17-10-32s-22-16-29-5c-4 8-15 11-24 8-23-9-32-37-15-47 21-14-37-32-76-24-18 3-45 18-59 33l-26 28 2 669c3 614 4 672 21 703 22 44 22 44-11 36-28-6-30-4-51 57-27 75-68 140-151 239-73 87-113 146-108 161 2 6 16-9 31-34 34-58 146-163 192-179 26-10 34-17 29-29-21-49-14-86 12-60 9 9 114 41 114 34 0-11-68-48-86-46-27 2-41-15-25-31 6-6 11-21 11-33 0-33 26-54 66-54 49 0 52-21 13-82-41-63-52-155-25-209 12-23 13-36 5-45-19-23-1-54 31-54 39 0 51 40 25 84-30 53-36 85-20 122 14 35 35 46 35 19 0-17 18-19 39-6 9 6 12 19 9 36-5 22 1 33 28 57 60 53 65 136 14 213-11 16-47 52-82 80-72 59-100 101-102 156 0 21-3 39-6 39-17-1-40-31-40-51 0-30-17-14-29 29-9 31-9 32 15 26 28-7 54 10 54 37 0 29-29 50-64 47-24-2-34-10-46-35-19-41-44-39-48 4-2 23 3 35 20 47 19 14 21 18 8 26-8 5-25 7-37 3-14-3-23-1-23 6 0 6 8 11 18 11 28 0 42 21 42 61 0 71-78 101-133 51-11-9-28-35-38-57-16-35-19-37-19-14 0 34 37 88 80 117 21 14 35 32 36 45 1 12 4 30 8 39 7 15 2 17-35 15-40-1-43-3-65-52-13-27-24-60-24-72s-4-25-10-28c-5-3-10-15-10-26 0-10-4-19-10-19-12 0-13 15-1 38 13 25 61 181 61 198 0 21-49 114-60 114-5 0-21-22-35-50m41-9c-3-5 1-14 9-21 17-14 20-66 5-75-6-4-8-10-6-14 3-4 0-13-5-21-8-13-10-13-19 0-26 40-18 140 12 140 5 0 7-4 4-9m-76-162c0-6-3-8-7-6-5 2-16 7-26 10-10 4-15 11-12 17 7 12 45-5 45-21m180 17c0-8-6-16-14-19-10-4-14 0-13 14 1 21 27 27 27 5m-265-118c-21-16-25-26-21-47l6-26-14 24c-12 21-12 28 0 46 7 11 23 21 34 22 19 2 19 0-5-19m330 13c-3-2 2-12 10-21 13-14 13-17 1-17-8 0-14 4-13 8s-6 14-16 21c-18 13-17 14 2 14 11 0 18-2 16-5m-262-39c8-9 20-29 26-45 10-24 15-27 61-27s51 3 61 27c14 38 38 63 60 63 26 0 33-19 14-40-22-24-26-189-6-214 8-9 11-19 8-22-9-10-66 58-77 94-11 30-14 32-60 32s-49-2-60-32c-6-18-29-53-51-78-34-39-46-31-15 9 6 8 10 51 9 105-1 72-5 93-19 103-20 15-12 43 14 43 10 0 26-8 35-18m286-15c-2-1-13-9-24-17-19-14-19-14-6 3 7 9 18 17 24 17q9 0 6-3m-195-22c-4-8-10-15-15-15-4 0-6 7-3 15 4 8 10 15 15 15 4 0 6-7 3-15m-146-83c2-7-3-12-10-12-8 0-15 7-15 15 0 18 19 15 25-3m312 9c0-5-3-17-6-26-5-12-9-14-14-4-5 7-6 18-3 26 6 15 23 18 23 4m-440-50c7-13 7-22 0-26-5-3-10-1-10 6 0 8-5 7-17-2-11-10-14-10-9-1 4 7 2 12-5 12-8 0-8 4 1 15 17 20 27 19 40-4m590-2c0-13-18-11-23 4-3 7-6 5-6-5-1-10-10-22-22-28-19-11-20-10-8 12 6 13 17 26 22 30 12 8 37-1 37-13m-470-35c0-31-3-36-19-31-15 4-20-2-25-29-9-47-58-91-144-131-40-18-91-45-114-59-22-14-42-23-45-21-3 3 43 37 100 76 98 66 145 111 160 154 4 9 14 17 23 17 21 0 54 28 54 47 0 7 2 13 5 13s5-16 5-36m177 7c-4-16-2-31 4-33 5-2-7-4-28-4-38-1-39-1-35 32 4 30 8 34 34 34 28 0 30-2 25-29m151-13c8-10 23-18 32-18 10 0 23-13 29-29 17-38 59-77 163-146 70-46 92-67 113-106 14-27 23-49 20-49-12 0-43 34-39 42 14 22-33 61-130 108-116 55-162 94-172 145-6 36-17 44-31 23-4-8-10 0-14 22-7 34 1 67 9 40 3-8 11-23 20-32m-155-76c10-20 43-66 74-102 77-90 122-162 155-248 34-89 36-114 3-51-13 26-47 71-75 102-27 30-50 58-50 61 0 4 12 3 27 0 27-7 27-7 12 17-19 28-55 33-53 7 2-25-10-22-25 6-17 30-6 49 22 41 19-5 20-4 6 7-8 7-18 21-22 31-3 9-15 17-26 17-17 0-19-5-14-35 3-19 3-35-1-35-14 0-36 70-36 112 0 53-15 81-30 58-5-8-10-34-10-58 0-42-22-112-36-112-4 0-4 16-1 35 7 43-9 47-41 10-20-23-42-33-42-19 0 3 22 30 49 60 26 30 57 73 67 94 10 22 21 40 24 40s13-17 23-38m147-3c0-5-4-9-8-9-5 0-9 7-9 15s4 12 9 9c4-3 8-9 8-15m-486-8c3-5-1-14-8-20-12-10-13-8-9 8 6 23 9 25 17 12m643 2c-4-3-1-13 6-22 11-14 10-14-5-2-16 12-16 31-1 31 4 0 3-3 0-7m-437-66c0-2-10-12-22-23l-23-19 19 23c18 21 26 27 26 19m274-53c3-8 2-12-4-9s-10 10-10 16c0 14 7 11 14-7m-487-24c9-13 6-15-18-14-16 0-32 4-37 9-4 5-2 5 5 1 6-3 18 0 25 8s13 13 13 12c1 0 6-8 12-16m693-6c0-3-4-2-10 1-5 3-10 2-10-4s-6-8-14-5-12 12-9 20c4 10 10 11 24 3 10-5 19-12 19-15m-547-9c-3-9-8-14-10-11-3 3-2 9 2 15 9 16 15 13 8-4m187 5c0-6 43-56 95-111 99-104 155-197 170-284 8-43 16-555 9-555-2 0-10 16-18 34-8 19-56 75-106 123-93 89-130 137-130 167 0 9 7 16 15 16s15 9 15 20c0 18-7 20-60 20-46 0-60-3-60-15 0-7 7-18 16-23 33-19 6-64-107-176-74-73-112-118-116-137-3-16-10-32-14-35-5-3-9-15-9-27 0-45-18-51-22-8-3 31 0 40 9 37 7-3 14-4 15-3 0 1 4 135 7 297l6 295 38 77c28 57 61 102 132 177 52 55 95 105 95 111 0 5 5 10 10 10 6 0 10-5 10-10m-129-9c40 21 52-13 19-52l-20-24 3 25c3 37-35 40-52 4-11-25-11-26 14-20 14 4 25 4 25 0 0-3-21-30-47-58-27-29-59-74-72-100-29-59-37-54-15 10 32 97 114 240 122 216 3-9 9-9 23-1m349-52c15-28 5-23-15 7-9 15-12 23-6 20 6-4 16-16 21-27m-645 1c3-6-7-27-24-47-36-43-42-103-15-141 28-40 8-34-30 8-31 34-37 47-34 78 3 32 7 38 36 47 32 9 43 30 20 37-17 6 0 28 22 28 10 0 22-5 25-10m879 4c20-8 21-24 1-24-27 0-16-29 12-32 59-7 62-79 5-134-37-35-59-39-27-4 30 33 25 92-13 139-41 51-31 75 22 55m-964-19c0-8-9-19-20-25-23-12-25-7-10 21 13 22 30 25 30 4m150-45c0-10-7-23-15-30-12-10-16-9-21 4-4 10-13 15-20 12-22-9-16 10 9 27 26 17 47 12 47-13m605 12c-3-3-11 0-18 7-9 10-8 11 6 5 10-3 15-9 12-12m147 1c18-16 25-39 9-29-5 3-14-1-21-9-10-12-14-12-26 0-17 17-18 27-2 43 15 15 18 15 40-5m-696-133c-1-17 3-35 10-41 9-7 9-22-3-67-21-81-29-82-28-4 1 37-2 77-6 88-5 14-2 27 9 38 21 21 20 21 18-14m608 9c-3-5-1-9 5-9 5 0 7-10 4-22-3-13-6-55-7-95-1-77-8-77-27 2-7 27-17 53-23 57-7 5-5 8 5 8 20 0 28 17 24 52-2 19 1 25 11 21 8-3 11-9 8-14m-717-84c14-31 12-31-17 0-16 17-19 25-9 25 8 0 19-11 26-25m864 8c13-15 12-15-8-5-14 8-24 9-28 2-10-16-25-12-19 5 8 20 38 19 55-2m-866-223c-3-5-12-10-18-10-7 0-6 4 3 10 19 12 23 12 15 0m412-66c-3-3-12-4-19-1-8 3-5 6 6 6 11 1 17-2 13-5m12-107c7-13 54-62 104-109 123-114 146-156 158-296 6-59 9-237 7-397l-3-290 53-8c58-9 65-18 77-89l6-37 392-3 392-3 70-35c54-27 93-58 173-140 88-89 100-105 85-114-9-5-35-30-58-55-79-90-129-132-204-169l-75-37-388-3-388-3-5-27c-19-92-26-99-100-101l-30-1 3-326c4-368-1-422-54-531-27-57-50-87-114-145-44-40-89-91-100-112l-19-39-11 27c-5 15-50 65-99 112-102 98-142 166-167 284-13 63-15 127-11 403l6 327h-34c-60 0-83 15-90 57-14 80 28 72-403 75l-387 3-76 37c-61 30-92 55-167 132-50 53-96 96-102 96-18 0-11 16 13 29 12 6 45 39 72 72 55 67 118 117 198 158l52 26 391 3 392 3 13 57 14 57 55 11 55 10 5 390 5 389 28 57c21 42 54 82 122 145 52 48 99 97 106 110s15 23 19 23 12-10 19-23m297-269c-3-13-6-32-6-43-1-19-1-19-11-2-12 21-4 67 12 67 7 0 9-9 5-22m124 16c0-8-19-13-24-6-3 5 1 9 9 9s15-2 15-3m53-295c4-16 3-19-5-11-14 14-20 45-8 37 4-2 10-14 13-26m28-6c13-16 12-17-3-4-17 13-22 21-14 21 2 0 10-8 17-17m-951-184c0-39-26-69-59-69-20 0-51 30-51 48 0 13 3 13 18-1 10-10 22-17 27-17 19 0 45 35 45 60 0 15-9 39-20 53s-20 28-20 32 14-9 30-30c21-27 30-49 30-76m901 72c-27-37-27-73 0-97 17-15 23-16 41-5 27 17 35 6 13-19-23-25-50-25-75 0-29 29-26 81 6 119 33 39 42 40 15 2m-951-55c0-2-8-10-17-17-16-13-17-12-4 4s21 21 21 13m995-5c3-5 1-12-5-16-5-3-10 1-10 9 0 18 6 21 15 7m-75-97c0-3-7-1-15 6s-15 17-15 22 7 3 15-6c8-8 15-18 15-22m-1005-114c-4-7 2-9 19-4 22 5 25 3 21-16-6-30-10-33-33-26-12 4-18 14-16 29 3 27 3 27 10 27 3 0 2-5-1-10m248-15c-7-21-13-19-13 6 0 11 4 18 10 14 5-3 7-12 3-20m877-7c0-12 4-17 12-12 7 4 8 3 4-5-4-6-11-9-16-6-30 19-66-45-57-101 5-31 4-34-9-23-19 16-39-2-30-26 4-12 10-14 19-7 8 7 19 5 35-8 12-10 22-20 22-22s-20-2-45 0c-44 4-44 4-51 47-6 42-7 44-55 55l-49 12v91l20-26c11-14 17-32 14-41-4-12 0-16 16-16 18 0 21 4 16 23-5 21-3 22 35 19 51-5 93 20 87 53-4 18-1 21 14 17 10-2 18-13 18-24m-226 7c-4-8-11-15-16-15-6 0-5 6 2 15 7 8 14 15 16 15s1-7-2-15m-2448-35c0-12-6-19-16-17-10 1-16-8-18-30s1-33 10-33c14 0 44 40 40 54-4 12 29 35 51 36 18 0 57-33 57-49 0-15-30-41-46-41-11 0-13 7-8 26 6 24 5 25-14 15-26-14-42-42-42-71 0-27 52-80 79-80 12 0 21-5 21-11 0-8-23-10-70-7-56 3-74 8-95 28-31 29-37 64-6 36 11-10 25-15 30-11 19 11 12 34-14 51-33 22-32 46 6 89 17 19 32 35 33 35s2-9 2-20m1401-13c22-47-27-97-82-83-26 7-97 66-78 66 5 0 18-9 28-20 20-22 74-27 93-8 15 15 16 58 1 58-5 0-8 4-4 10 9 14 31 2 42-23m373-12c0-40-3-45-25-50-14-3-36-7-50-10-18-4-25-12-25-28 0-53-10-65-56-69-24-2-44-2-44 0s10 12 23 22c15 13 26 15 34 8 9-7 15-5 19 7 9 23-11 42-29 27-12-10-13-4-9 37 2 30 0 51-7 55-26 17-8 23 29 10 30-10 46-11 61-4 18 10 19 9 13-14-5-22-3-26 14-26 24 0 38 16 20 22-8 3-6 12 8 31 10 14 20 27 22 27 1 0 2-20 2-45m1092 27c-16-5-16-44 0-60 19-19 76-14 98 8 12 12 18 25 15 30s-1 11 4 14c23 15 2-42-23-61-63-48-136-34-136 27 0 32 26 64 43 53 8-5 8-8-1-11m1398-13c0-18-17-17-33 2-23 26-21 31 8 17 14-6 25-15 25-19m-70 6c7-8 20-29 29-46 20-38 35-39 39-4 3 22 6 24 18 14 21-18 17-45-11-63-26-17-33-40-14-51 5-4 19 1 30 11 31 28 25-7-6-36-21-20-39-25-95-28-47-3-70-1-70 7 0 6 9 11 21 11 28 0 79 53 79 83 0 26-34 77-52 77-6 0-8-10-4-25 8-31-13-34-38-6-14 15-15 24-7 39 18 33 60 42 81 17m-1098-37c-5-20-21-35-23-21-9 60-8 63 10 51 11-7 16-19 13-30m-195 17c0-8-4-12-9-9-4 3-8 9-8 15 0 5 4 9 8 9 5 0 9-7 9-15M784 3394c3-8 2-12-4-9-22 13-10-62 13-83 25-24 85-48 94-38 4 3 1 6-5 6-7 0-12 4-12 8 0 5 7 9 15 9s15-5 15-10 6-4 13 2c8 6 17 8 20 4 11-10 8-20-5-21-7-1-35-3-61-6-56-5-97-29-212-126-79-66-142-106-152-96-3 2 10 12 28 22 76 39 179 160 179 210 0 16 1 16 18 1 10-10 26-17 35-17 15 0 14 3-3 33-16 27-17 39-9 80 11 48 22 59 33 31m356 1c-7-8-17-12-23-8s-3 9 9 14c27 11 28 11 14-6m3745-5c3-6-1-7-9-4-18 7-21 14-7 14 6 0 13-4 16-10m-3635-53c0-1-44-3-98-4-65-2-92 1-82 7 8 5 34 10 58 10 44 0 51 7 30 29-7 7 11 1 40-13 28-15 52-27 52-29m3593 36c-26-10-12-23 26-23 43 0 71-8 71-20 0-4-26-3-57 2-32 5-73 8-90 6-18-2-33-1-33 2 0 9 62 39 80 39 10-1 11-2 3-6m-3493-48c0-8-7-15-16-15-14 0-14 3-4 15 7 8 14 15 16 15s4-7 4-15m3320 4c0-5 5-7 10-4 6 3 10 1 10-4 0-6-9-11-20-11s-20 7-20 15 5 15 10 15c6 0 10-5 10-11m-3620-14c0-8-4-15-9-15s-18-3-28-6c-15-5-15-4-3 5 8 6 11 11 7 11-5 0-5 5-2 10 10 15 35 12 35-5m2505 5c-3-5-12-10-18-10-7 0-6 4 3 10 19 12 23 12 15 0m1190 0c-3-5-14-10-23-9-14 0-13 2 3 9 27 11 27 11 20 0m245-4c0-19-27-28-33-11-7 15 1 25 20 25 7 0 13-6 13-14m-3702-3c-10-2-26-2-35 0-10 3-2 5 17 5s27-2 18-5m2922-4c-11-7-4-8 25-3 36 6 38 6 24-9-14-13-22-14-54-4-30 9-34 12-19 18 28 11 41 10 24-2m-3040-8c9-2-24-21-36-21-7 0-15 7-18 15-5 15 3 16 54 6m654-1c-36-14-77-16-81-2-3 9 10 12 49 11 39 0 47-3 32-9m3067-6c8-6 47-19 88-28 74-16 190-64 191-78 0-5-4-8-10-8-5 0-10-10-10-22 0-17-5-14-29 19-31 43-106 81-136 69-15-5-84 21-96 37-3 4-10 7-15 6-22-4-54 2-54 10 0 12 54 8 71-5m-4387-6c-3-5-1-15 6-23 8-10 8-15-1-21q-10.5-6-6 3c4 6-3 14-16 18s-17 8-9 12c6 2 10 8 8 12-3 4 1 8 9 8s12-4 9-9m5021-10c5 4 5 1 1-5-4-7-15-13-24-13-13 0-14-2-4-9 11-7 10-10-3-15-24-9-42 4-21 16 9 5 16 19 16 31 1 20 2 21 14 5 7-10 17-14 21-10m-4416-1c-25-17-82-35-94-31-19 8-99-21-115-41-7-8-16-13-20-10-5 3-12 0-16-6-4-8-3-9 4-5 16 10 14-5-3-28-15-19-15-19-15 2 0 12-4 22-10 22-23 0-6 17 42 40 65 32 264 82 227 57m3721-13c93-26 174-79 269-175l88-89-86-86c-94-95-136-125-226-163-58-25-69-26-333-31-149-3-272-2-272 1s19 13 43 23c26 12 80 57 143 121 98 99 144 131 152 106 5-14 42-15 42-1 0 21 40 8 74-24 40-37 50-82 17-73-15 4-21-1-23-21-7-55-75-54-71 2 2 23-1 25-18 16-10-6-19-15-19-21s-5-7-11-3c-8 5-10-3-7-25 2-17 2-31-2-31-13 0-28 47-20 61 6 8 4 16-3 21-9 5-7 12 5 24 16 16 18 16 23 1 5-12 12-14 29-7 13 5 29 4 37-1 32-20 40 2 12 33q-16.5 18-57 18c-45-1-64-11-90-52-10-16-22-28-27-28s-32-24-61-54c-29-29-60-56-68-58-8-3-12-8-9-11 9-11 80 13 86 29 7 20 20 17 26-6 3-14 14-20 31-20 19 0 26 5 26 20 0 13-7 20-20 20-24 0-26 22-4 41 13 10 17 10 25-2 5-8 9-17 9-21 0-13 73-51 113-58 89-17 230 19 322 81 44 29 180 165 180 179 0 16-146 159-194 190-78 50-155 72-251 73-95 1-138-14-167-61-9-15-18-29-20-31-6-9-33 23-33 39 0 13 6 17 20 13 15-4 20 0 20 16 0 29-50 30-57 1-6-21-23-28-23-9 0 5-16 17-35 25-40 17-55 18-55 4 0-5 6-10 13-10s37-25 67-55 60-55 66-55c7 0 15-9 19-20 9-30 54-60 89-60 34 0 76 24 76 44 0 17-82 15-96-2-8-11-13-11-24 3-12 14-12 18 0 25 10 6 11 12 3 22-7 8-7 22-2 36 12 33 26 27 21-9-3-22-1-30 7-25 6 4 11 3 11-3s10-15 22-22c18-10 20-9 14 6-10 28 3 55 28 55 27 0 46-18 46-43 0-15 5-18 21-14 39 10 34-23-12-69-40-41-79-58-79-34 0 14-38 12-42-2-9-25-59 11-150 107-62 65-107 103-144 121-30 14-54 27-54 28 0 0 116 0 257-2 196-2 271-6 313-18m-3140-6c-27-13-84-61-145-123-96-98-144-132-153-106-5 14-32 15-32 1 0-33-113 33-126 73-7 23 10 37 39 29 13-3 18-1 13 6-13 22 13 53 42 50 24-3 27-7 26-35-1-18 0-33 1-33 2 0 18 13 36 29 27 25 30 32 19 45-9 11-9 16-1 16 20 0 36-47 22-64-9-11-9-15 1-18 10-4 10-8-1-22-11-13-16-14-22-5-8 14-99 20-99 7 0-19 42-48 70-48 32 0 80 19 80 31s138 142 167 157c13 8 23 16 20 18-10 10-87-17-97-34-9-15-10-15-16 5-7 25-27 35-49 26-22-8-14-38 9-38 27 0 30-18 8-38-17-16-20-15-40 13-46 62-132 81-252 56-113-24-173-59-278-160-51-49-91-93-90-97 8-21 149-156 194-185 105-67 275-98 359-64 36 14 75 49 75 67s15 16 35-3c20-20 15-39-11-39-30 0-23-30 8-33 20-2 28 2 33 19 6 19 9 20 17 6 9-16 85-43 95-33 3 2-9 12-26 20-16 9-47 36-68 61-20 25-43 45-50 45s-19 13-28 30c-19 36-43 50-89 50-34 0-76-27-76-48 0-14 84-8 96 6 8 11 13 11 24-3 11-13 11-18 1-25-9-5-10-10-2-14 15-10 14-29-4-52-15-19-16-19-14 1 2 34-1 46-10 41-5-3-11 1-15 9-10 26-32 17-31-12 0-23-5-29-28-31-24-3-30 2-40 27-6 17-20 31-31 33s-21 9-24 16c-6 19 77 92 105 92 14 0 21-4 18-10-3-5 3-10 14-10 10 0 21 5 23 11 8 25 57-8 148-101 55-57 116-108 145-124l50-26-275 3c-272 2-276 3-336 28-85 37-126 66-225 164l-86 85 88 87c101 99 169 146 254 173 53 17 92 19 320 19h260zm-690-39c-14-11-55-50-93-87-62-61-69-66-88-54-26 16-37 7-22-17 12-18 8-31-9-31-4 0-8 9-8 21 0 26-22 20-35-9-8-19-18-22-65-22-30 0-62-5-70-10-25-16 7-30 71-30 48 0 57-3 62-20 3-11 13-23 24-27 10-3 22-11 26-17 6-8 10-7 14 2 10 25 38 10 109-61 44-44 96-85 131-102 32-16 60-33 63-37s16-7 28-8c54-1 66-2 54-7-6-3-10-9-7-13 3-5-8-4-25 2-17 5-34 8-37 4-3-3-11 0-17 7-6 8-44 21-85 30-105 25-235 87-180 87 6 0 9 9 6 20-8 30 6 24 27-10 9-17 28-37 41-46 30-20 118-47 110-34-4 6-12 10-19 10-17 0-106 72-106 86 0 13-55 54-73 54-23 0-38-22-25-37 12-15 5-28-11-18-6 3-11 17-11 31 0 15-6 24-15 24s-21 11-27 25-17 25-25 25c-24 0-14-28 19-54 18-14 29-28 26-32-4-3-31 15-60 41s-69 57-90 68c-21 12-38 24-38 27s17 15 38 27c20 12 61 42 91 68 29 25 56 43 59 40 4-3-8-17-26-31-33-26-43-54-19-54 8 0 19 11 25 25s18 25 26 25c9 0 16 12 18 27 2 18 10 29 23 32 19 3 19 2 3-16-14-15-15-22-6-31 7-7 18-12 25-12 20 0 73 42 73 57 0 8 8 17 18 20 9 4 29 19 44 35 14 15 34 28 45 28 15-1 15-3-7-21m246 2c-10-11-15-25-11-32 6-8 13-5 25 11 17 23 96 45 106 29 3-5 10-7 15-4 11 8 6-31-6-42-4-5-5-2-1 5 4 6 2 12-3 12-6 0-11 8-12 18 0 10-3 12-6 4-2-6-8-10-13-7-11 7-70-15-70-26 0-6-14-15-30-21-57-19-49-74 19-135l36-32-42-39c-23-21-45-51-48-65-8-31 8-57 36-57 10 0 21-9 24-20 6-19 46-37 71-32 7 1 14-4 17-11 8-23-55-8-84 20-31 29-52 13-23-18 20-23 7-25-39-5-44 18-70 50-70 85 0 27-2 28-39 23-43-5-78 17-78 50 0 16-3 17-21 8-11-7-31-9-42-6-21 6-93 65-85 70 1 1 20 17 42 35 33 28 44 32 72 26 25-4 34-2 34 8 0 19 33 48 56 49 11 1 29-2 41-6 19-6 22-3 21 24-1 35 24 67 67 86 46 20 62 18 41-5m3549 5c39-17 78-72 69-98-6-21-4-21 30-8 37 14 76-6 83-42 5-23 8-26 24-17 26 13 58 3 99-32l35-29-35-30c-43-36-71-45-99-30-18 9-21 8-21-8 0-34-35-55-79-49-38 5-40 4-39-24 1-44-34-78-97-93-28-7-29-7-12 12s23 42 10 42c-5 0-19-12-32-25-23-25-71-35-71-15 0 6 11 10 24 10 25 0 56 23 56 42 0 5 7 8 15 4 17-6 45 19 45 40 0 26-27 68-59 92-36 26-40 42-10 42 17 0 19-3 10-14-10-11-8-16 7-20 11-4 36-22 56-42 29-28 37-32 42-19 7 17-12 45-30 45-6 1-22 10-35 21-31 25-17 42 25 30 17-5 37-5 46 0 10 5 22 3 34-7 17-14 14-15-38-10-32 2-58 3-58 0 0-2 18-13 41-24l40-21 43 20c23 12 52 21 64 21 39 0 23 15-30 28-28 6-55 17-59 23-5 9-18 7-49-5-23-9-45-15-48-12-2 3 7 10 21 15 31 12 41 27 32 49-6 15-8 15-23-4-21-26-81-68-88-61-3 3 8 14 25 26 38 27 50 75 25 102-9 10-21 19-26 19-6 0-17 9-26 21-11 12-30 21-50 21-41 1-43 18-2 18 20 0 39-9 54-25 28-30 42-21 21 12-18 27-8 29 40 9m246-13c17-16 40-37 50-48l42-42c25-26 49-29 66-9 10 11 8 16-6 24-21 12-11 27 12 19 8-4 15-18 15-32 0-16 6-25 15-25s21-11 27-25 17-25 25-25c23 0 14 25-18 54-17 15-28 30-25 33s29-16 58-42 69-57 90-68c21-12 38-24 38-27s-17-15-38-27c-21-11-61-42-90-68s-56-44-60-41c-3 4 8 18 26 32 33 26 43 54 19 54-8 0-19-11-25-25s-18-25-26-25c-9 0-16-12-18-27-2-18-10-29-23-32-19-3-19-2-3 16 14 15 15 22 6 31-7 7-18 12-25 12-20 0-73-42-73-57 0-8-7-16-15-20-9-3-29-18-45-34s-37-29-47-29c-13 0-8 8 19 30 21 17 65 58 98 92 58 57 62 60 75 42 10-13 17-15 22-8 5 6 16 14 26 17 11 4 21 16 24 27 5 17 14 20 62 20 64 0 96 14 71 30-8 5-40 10-71 10-48 0-57 3-62 20-3 11-13 23-24 27-10 3-21 11-25 17s-12 5-22-3c-19-16-27-11-96 59-25 25-61 57-80 72-25 19-30 27-18 28 10 0 32-12 49-27m-407-7c-7-19-25-22-21-3 2 12 19 28 24 23 2-2 1-11-3-20m-3504-6c-11-11-20-24-20-30 0-5-9-10-21-10-26 0-60-17-79-40-8-10-26-21-40-24-22-6-20-3 14 26 75 64 197 129 146 78m3797-14c32-19 74-49 93-66 32-28 33-30 10-24-14 3-32 14-40 24-19 23-53 40-79 40-12 0-21 5-21 10 0 6-9 19-20 30-30 30-8 24 57-14m-4120 6c0-10-10-18-24-18-19-2-22 1-12 12 6 8 15 11 20 8s9 0 9 5c0 6 2 11 4 11 3 0 4-8 3-18m4446-26c3-7-1-13-9-13-7 0-11 4-8 9 3 4 0 8-5 8-6 0-11 4-11 10 0 13 27 2 33-14m-4810-11c-3-9-8-14-10-11-3 3-2 9 2 15 9 16 15 13 8-4m182 5c-3-5-12-10-18-10-7 0-6 4 3 10 19 12 23 12 15 0m4766-7c13-16 12-17-3-4-10 7-18 15-18 17 0 8 8 3 21-13m177-8c-3-3-9 2-12 12-6 14-5 15 5 6 7-7 10-15 7-18m-5105 0c-3-9-8-14-10-11-3 3-2 9 2 15 9 16 15 13 8-4m5085-10c-3-3-9 2-12 12-6 14-5 15 5 6 7-7 10-15 7-18m-328-90c0-8-4-15-9-15-13 0-22 16-14 24 11 11 23 6 23-9m278-28c7 3 12-3 12-15 0-14-7-19-30-20-17 0-28 3-25 8s-5 18-17 30l-23 21 35-14c19-8 41-12 48-10m-4954-9c-3-10 3-21 13-28 15-9 14-10-7-4-14 4-34 7-45 8q-19.5 1.5-21 21c-1 16 5 20 32 20s33-3 28-17m232-13c1-8-1-15-6-15-10 0-20 26-13 34 8 8 16-1 19-19m4474 6c0-5-7-11-15-15-15-5-20 5-8 17 9 10 23 9 23-2m-4711-45c15-8 71-50 124-94 54-43 121-91 149-105 29-15 44-27 34-27-32 0-76-55-76-95 0-25 4-34 12-29 7 5 8 3 3-5-11-18-25 0-35 43-6 27-3 45 10 71 18 34 17 35-2 35-12 0-27-8-34-17-13-17-13-17-14 0-1 51-103 172-178 211-18 9-32 19-32 21 0 8 10 6 39-9m265 5c3-5-1-11-9-15-9-3-15 0-15 9 0 16 16 20 24 6m4416-6c0-9-6-12-15-9-8 4-15 10-15 15s7 9 15 9 15-7 15-15m245-11c-91-60-174-161-175-211-1-17-1-17-14 0-7 9-23 17-34 17h-21l20-34c20-35 19-68-5-111-11-19-12-26-15-52 0-7-5-13-11-13-5 0-7 7-4 15 4 8 1 22-6 30-11 13-10 14 5 9 14-6 16-4 10 6-5 9-4 11 3 6 8-5 12 5 12 32 0 28-7 45-25 62-25 24-80 36-90 20-3-4-15-6-26-3-21 6-21 7-4 19 11 8 24 10 34 5 25-14 107 29 190 99 111 94 161 130 179 130 10 0 0-11-23-26m-4462-57c29-31 65-50 83-43 8 3 19-4 25-17 7-12 19-27 28-34 29-22 0-13-58 18-69 37-142 99-117 99 9 0 27-11 39-23m4017-7c-31-27-145-100-155-100-2 0 5 16 16 35 12 19 25 32 31 29 15-10 66 16 83 42 8 13 25 24 37 24 20 0 19-3-12-30m-4575-29c3-5 0-13-6-17-7-4-9-3-5 4 3 5 0 13-6 15-9 4-10 6-1 6 6 1 14-3 18-8m5111-6c9-8 11-15 6-15s-15 7-22 15-9 15-6 15c4 0 14-7 22-15m-4791-4c-3-2 7-10 21-16 15-6 28-19 30-29 2-16 0-16-20 3-12 12-26 18-29 14-4-3-7-1-7 6s-4 10-8 7c-5-3-9 1-9 8s6 13 14 13c7 0 11-3 8-6m4399-23c12-8 15-6-54-40-55-27-167-58-205-57-13 0-4 7 23 19 23 11 49 17 57 13 28-10 104 27 132 64 18 23 29 31 32 22 2-8 9-17 15-21m90 18c-5-12-26-27-44-30-3-1-12-5-20-11-13-8-13-7-1 8 8 10 16 15 18 13 3-3 14 4 26 15 25 23 28 24 21 5m-3859-47c-4-5-13-9-22-9-13 0-13 3-3 15 13 15 35 11 25-6m3248 6c4-8 3-16-1-19-13-8-35 11-28 23 10 15 23 14 29-4m857-52c0-8 4-11 10-8s7-1 4-9c-6-16-26-23-22-8 1 4-3 17-10 29-11 19-10 22 3 17 8-4 15-13 15-21m-4979 4c-6-8-7-18-3-22 4-5 1-5-5-1-12 7-18-5-14-27 1-5-3-6-9-2-7 4-7 12 0 26 6 10 8 19 5 19-4 0-3 5 0 10 3 6 13 10 22 10 12 0 13-3 4-13m369-29c0-19-16-5-17 14-2 18 0 20 7 8 5-8 10-18 10-22m26 5c-7-7-26 7-26 19 0 6 6 6 15-2 9-7 13-15 11-17m869-9c22-9 1-24-33-24-19 0-21 2-10 15 15 16 20 17 43 9m2469-9c6-16-11-20-40-8-16 6-16 7 2 14 28 11 31 11 38-6m630-6c-3-5-9-7-14-4-4 3-10 1-12-4-1-4-12-5-23-1-19 7-19 8 5 18 27 10 53 5 44-9m-3834-19c0-6-7-10-15-10s-15 2-15 4-3 12-7 21c-5 15-3 16 15 6 12-7 22-16 22-21m3935 13c-3-8-5-19-5-25s-9-3-20 7c-21 19-14 32 16 32 9 0 13-6 9-14m-319-6c8 3 14 1 14-5 0-5-7-12-15-16-8-3-15-1-15 5s-4 8-8 5c-5-3-9 2-9 10 0 9 4 11 10 5 5-5 16-7 23-4m97-3c-10-7-25-13-33-13-10 0-11 2-2 6 6 2 10 8 8 11-2 4 7 8 20 8 23 2 24 1 7-12m-3763-4c0-5-11-10-24-10-28 0-76-51-76-81 0-28 17-57 42-70 19-10 20-9 14 15-8 32 12 35 38 7 37-41-33-93-74-56-11 10-18 20-17 24 3 12-28 51-40 51-8 0-13-13-13-32 0-30-1-31-15-12-21 28-18 50 10 68 26 17 33 40 14 51-5 4-19-1-30-11-16-14-19-14-19-2 0 16 36 52 60 61 27 10 130 7 130-3m252-5c1-12-72-55-92-54-10 0-11 2-2 6 23 9 12 23-20 23-40 0-78 10-78 19 0 4 32 3 71-2 78-10 133-3 108 14-10 8-10 9-1 7 8-2 14-8 14-13m98 0c0-8-4-15-10-15-5 0-10 5-10 11 0 5-5 7-12 3s-8-3-4 4c10 17 36 15 36-3m2215 5c3-6-1-7-9-4-18 7-21 14-7 14 6 0 13-4 16-10m1600-20c14-13 25-29 25-37 0-18-10-16-25 4-7 9-17 13-23 9-20-12-13-42 13-54 28-13 32-38 10-68-8-12-13-23-12-25s0-3-2-2c-2 2-11-3-19-9-12-10-14-9-10 7 2 11 10 19 16 18 7-2 12 9 12 27 0 17-5 30-13 30-12 0-43-39-40-51 1-4-6-14-17-24-41-37-111 15-74 56 25 28 46 25 38-6-4-15-2-25 4-25 17 0 52 51 52 76 0 32-47 84-76 84-13 0-24 5-24 11 0 8 23 10 70 7 56-3 74-8 95-28m-235 0c-8-6-35-10-59-10-34 0-42-3-37-15 7-19 5-19-39 2s-45 30-2 25c17-1 57 1 87 6 59 9 73 7 50-8m-2382-5c2-2 6-22 9-44 6-42 8-43 71-56 31-6 32-9 32-53v-46l-17 24c-10 14-16 33-15 43 2 12-3 17-18 17-19 0-21-4-16-26 6-22 5-24-12-15-22 11-74 0-100-21-12-11-12-7 2 21 11 20 16 48 14 67-3 29-1 33 14 28 11-3 20 1 24 10 8 21-5 41-18 28-7-7-15-7-22-1-6 5-20 16-31 25-18 13-16 14 30 8 28-4 52-8 53-9m977-9q-30-24-42-15c-14 12-27-6-19-27 4-9 13-13 23-10 15 5 18-1 18-37 1-23 4-50 9-59 8-17 6-17-30-2-28 12-43 13-61 5-22-10-23-9-17 14 5 21 3 25-14 25-24 0-38-16-20-22 8-3 5-13-10-33l-22-28v46c0 48 0 48 66 62 29 5 33 11 38 50 6 40 10 44 39 48 73 9 74 9 42-17m1365-26c0-5-9-14-20-20-16-9-18-8-14 5 3 8 10 12 15 9s9 0 9 5c0 6 2 11 5 11s5-4 5-10m-4099-63c-16-16-26 0-10 19 9 11 15 12 17 4 2-6-1-17-7-23m957 8c-3-3-9 2-12 12-6 14-5 15 5 6 7-7 10-15 7-18m564 11c7 4 8 2 4-5-9-13-26-5-25 12 0 9 2 8 6-1 2-6 10-9 15-6m1398 10c0-3-4-8-10-11-5-3-10-1-10 4 0 6 5 11 10 11 6 0 10-2 10-4m-1450-16c31-17 42-45 29-74-7-14-18-27-25-30-16-6-17-1-4 23 24 46-59 83-102 44-11-10-18-12-18-4 0 14 59 51 83 51 10 0 27-5 37-10m1559-4c27-15 60-46 47-46-4 0-14 7-22 15-29 29-104 12-104-23 0-10 5-23 12-30 9-9 9-12-3-12-42 0-54 68-17 94 28 20 51 20 87 2m146-26c-3-5-2-10 3-10 19 0 21-30 4-39-15-8-17-5-16 17 1 35 3 42 10 42 3 0 2-4-1-10m-1832-23c3-8-1-14-8-14s-11 6-8 14c3 7 6 13 8 13s5-6 8-13m88-24c-12-20-14-14-5 12 4 9 9 14 11 11 3-2 0-13-6-23m1564 8c3-5 2-12-3-15s-9 1-9 9c0 17 3 19 12 6m-2905-17c0-8-4-12-10-9-5 3-10 10-10 16 0 5 5 9 10 9 6 0 10-7 10-16m1593-41c-6-15-13-16-32-4-8 5-11 16-8 25 5 14 10 14 26 4 10-6 17-18 14-25m1102 10c1-15-5-19-26-19-15 0-26 3-23 7 2 4-1 11-8 15-8 5-6 10 8 14 30 11 47 5 49-17m-892-8c4-8 2-17-3-20-6-4-10 3-10 14 0 25 6 27 13 6m647 0c0-8-4-15-10-15-5 0-7 7-4 15 4 8 8 15 10 15s4-7 4-15m329-73c25-36 13-66-16-40-10 8-24 17-31 19-9 3-9 9 3 27 9 12 18 22 20 22s13-13 24-28m176-2c-3-5-12-10-18-10-7 0-6 4 3 10 19 12 23 12 15 0m-1255-60c0-5-5-10-11-10-5 0-7 5-4 10 3 6 8 10 11 10 2 0 4-4 4-10m860 0c0-5-5-10-11-10-5 0-7 5-4 10 3 6 8 10 11 10 2 0 4-4 4-10m-889-29c28-23 31-76 6-115-23-35-40-33-20 2 20 34 11 77-18 92-15 9-24 8-35-1-8-6-18-9-22-5-8 9 34 46 53 46 7 0 23-8 36-19m970 0c28-23 20-38-9-20-16 10-23 10-36 0-24-20-29-66-10-96 14-21 14-24 2-20-39 15-50 103-18 135 25 25 41 25 71 1m258-35c9-11 8-15-5-20-11-4-15-2-11 8 4 9-1 17-11 19-15 4-15 5-1 6 9 0 22-5 28-13m-1298-23c13-16 12-17-3-4-10 7-18 15-18 17 0 8 8 3 21-13m1042 4c7 3 8 2 4-2-12-13-36-15-44-3-3 7-1 8 5 4 7-4 12-1 13 6q0 15 6 0c2-6 10-9 16-5m389-121c3-5 13-11 22-12 42-6 107-87 87-107-7-7-16-5-27 4-15 12-17 12-9 0 5-9-4-6-21 6-31 22-91 124-71 120 7-1 15-6 19-11m-147-56c-3-5-12-10-18-10-7 0-6 4 3 10 19 12 23 12 15 0m-1060-233c1-19-1-41-6-48-9-15-11-10-12 36-1 64 12 73 18 12m615-17c0-30-2-32-14-20-9 10-12 27-9 49 7 42 23 22 23-29m-32-360c-4-232-6-260-26-314-34-92-69-144-157-236-45-47-87-94-93-105l-12-20-12 20c-6 11-46 56-89 100-91 95-132 157-161 245-20 59-22 91-25 355l-3 290 30-63c20-44 56-91 119-156 67-69 92-103 101-134 9-37 14-42 39-42 24 0 30 6 41 43 9 31 36 66 100 132 82 84 137 166 142 211 6 65 9-110 6-326m-735-85c-3-9-8-14-10-11-3 3-2 9 2 15 9 16 15 13 8-4m903-5c0-12-4-16-9-11s-6 14-3 20c10 15 12 14 12-9m-143-260c0-44-4-85-10-91-7-7-9 0-7 25 6 53-12 52-25-2-14-53-71-175-100-212-24-30-39-20-17 12 21 30 20 41-4 33-30-10-25 3 24 55 51 54 97 141 116 217 8 29 16 51 18 49 2-3 4-41 5-86m-598 24c15-68 50-134 101-192 45-51 56-76 29-66-19 8-19-6 1-34 9-13 13-26 10-29-16-16-106 146-127 230-14 58-33 63-26 6 3-29 2-38-6-30-14 14-16 172-3 168 6-2 15-25 21-53m-125-54c0-6-9-2-20 7-11 10-20 19-20 21 0 1 9-2 20-8s20-15 20-20m870 16c0-2-11-6-25-8-13-3-22-1-19 3 5 9 44 13 44 5m-902-48c-34-53-29-95 17-150 27-32 25-48-5-48-22 0-39 22-22 28 22 7 13 32-11 32-56 0-65 69-16 125 35 39 59 48 37 13m915-6c55-57 50-132-9-132-28 0-30-7-8-31 15-17 14-19-11-25-42-10-48 8-15 48 40 48 46 84 22 131-24 44-16 47 21 9m-893-81c0-6-4-12-8-15-5-3-9 1-9 9s4 15 9 15c4 0 8-4 8-9m857-6c0-8-4-12-9-9s-6 10-3 15c9 13 12 11 12-6m-795-47c-9-9-17-9-37 2-26 14-35 33-11 24 8-3 17 0 21 6 5 9 12 8 23-4 13-12 13-19 4-28m751 0c-15-17-18-17-31-4-12 12-13 18-3 30s17 13 31 3c18-10 18-13 3-29m-885-25c10-10 10-13-1-13-8 0-20 6-26 13-8 10-7 14 2 14 7 0 18-6 25-14m1008-5c-9-13-19-31-23-41-3-10-52-50-109-88-73-48-115-85-143-123-22-30-50-57-61-61-13-4-20-15-20-33 0-21-2-24-10-12-5 8-10 38-9 65 0 48 1 49 16 28 23-34 43-29 43 10 0 46 36 78 161 140 93 47 106 57 124 94 11 23 26 42 34 43 10 0 10-5-3-22m-402-23c-4-15-2-25 5-25 6 0 11-4 11-10 0-5-13-10-30-10-36 0-36 2-8 40 27 36 30 37 22 5m-201-9c18-27 13-36-20-36-24 0-31 14-12 25 6 4 8 13 5 21-9 23 10 16 27-10m-390-8c8-13 61-46 118-75 120-60 162-98 161-143-1-35 27-43 35-10 3 11 9 17 14 14 12-7 11-101-1-109-6-4-10 5-10 20 0 18-7 28-25 35-13 5-35 26-48 48-31 48-73 85-170 147-42 27-77 52-77 56s-7 15-16 23c-8 9-11 16-6 16s16-10 25-22m157-43c9-10 9-15 1-15-6 0-11 5-11 10 0 6-5 10-11 10-5 0-7-5-3-12s3-8-5-4c-12 8-6 26 8 26 5 0 14-7 21-15m150 5c8-5 11-10 5-10-5 0-17 5-25 10s-10 10-5 10c6 0 17-5 25-10m150-89c12-108 26-112 40-9 5 35 12 73 16 86 10 33 28 27 21-8-5-21-3-30 6-30 19 0 36 20 31 35-3 8 4 13 20 13 14 0 26-2 26-3 0-2-21-27-46-57-25-29-55-72-67-95-12-24-24-43-27-43s-16 20-27 44c-12 24-36 61-54 82-68 81-65 74-36 74 19 0 26-6 29-22 2-13 11-24 20-26 15-3 17 2 12 30-6 31-6 32 11 17 11-11 20-42 25-88m370 84c0-1-7-8-15-15-13-10-15-9-15 8 0 15 5 20 15 16 8-4 15-7 15-9m-461-68c8-10 7-14-2-14-8 0-14 6-14 14 0 7 1 13 2 13 2 0 8-6 14-13m-197-65c-7-2-9-9-5-15 3-7 2-8-2-4-16 14-14 36 3 29 10-4 12-7 4-10m374-20c-17-16-18-16-5 5 7 12 15 20 18 17 3-2-3-12-13-22m-115-9c13-16 12-17-3-4-10 7-18 15-18 17 0 8 8 3 21-13m310-67c5 3 8 0 7-8-2-8 6-13 19-13 33 0 35-10 2-12-16-1-29 2-29 8s-5 7-12 3-8-3-4 4 3 12-3 12-7 8-3 18c6 16 7 16 10-1 2-9 8-15 13-11m-503 0c-10-7-14-17-10-21 4-5 1-4-7 0q-15 9-9-6c4-10-2-14-20-16-16-1-20 2-12 7 9 5 9 9 1 13-7 3-7 4 1 3 7-2 24 5 37 15 13 11 26 19 30 19 3 0-2-7-11-14m99-81c0-8-4-12-9-9-12 8-10-10 3-23 8-8 7-13-2-18-8-5-10-4-5 3 4 7 3 12-3 12-5 0-12-6-15-12-3-7-3-2 0 12 6 21 22 50 29 50 1 0 2-7 2-15m320-36c10-24 9-26-6-22-12 3-18 15-19 35-1 33 8 29 25-13m-167-49c0-5-4-10-10-10-5 0-10 5-10 10 0 6 5 10 10 10 6 0 10-4 10-10m151-63c-6-8-7-18-3-22 4-5 1-5-6-1-10 6-10 11-1 22 6 8 14 14 16 14 3 0 0-6-6-13m-241-112c-7-8-17-15-23-15-5 0-2 9 8 20 21 23 35 19 15-5m171 11c5 3 9 0 9-6 0-15-23-7-26 8-1 7 0 8 3 2 2-5 9-8 14-4m-73-51c16-34 15-57-2-90l-14-26-16 23c-9 12-16 32-16 45 0 25 20 73 30 73 4 0 12-11 18-25"/><path d="M2934 5561c-2-2-4-10-4-18 0-10 18-13 70-13 54 0 70 3 70 14s-17 15-66 18c-36 1-68 1-70-1m56-378c0-5-40-50-90-101-150-157-170-219-170-533v-217l76 75c79 77 83 89 59 146-6 15-4 16 20 7 33-12 35-12 35 0 0 24-41 50-81 50-23 0-38 4-34 10 3 5 12 7 20 3 26-9 61 6 73 32 16 34 15 35-8 35-11 0-20 7-20 15 0 27-17 15-35-25-19-42-48-53-59-24-20 53 13 94 77 94 51 0 79-18 101-65 14-28 22-35 47-35 21 0 32 6 39 23 22 52 59 77 114 77 44 0 76-29 76-69 0-31-19-54-36-43-6 4-19 24-29 45-18 38-35 49-35 22 0-8-9-15-19-15-14 0-18-5-14-19 8-30 34-49 73-54 34-4 33-4-7-5-29-2-49-9-63-24-22-24-26-43-7-35 6 2 23 8 36 12 23 7 23 7 7-16-30-43-20-65 59-143l75-74v217c0 314-19 374-173 540-87 94-107 111-107 94m42-71c34-48 43-84 28-111-9-19-8-21 14-21 37 0 66-36 66-81 0-21-4-41-10-44-16-10-11-28 6-21 27 10 79-19 97-55 17-37 14-52-6-26-21 28-66 39-106 26-20-6-42-16-48-22-22-16-15 8 7 28 23 21 26 35 6 35-17 0-40-34-51-75-6-21-9-25-12-13-2 9 5 38 16 64 25 55 26 64 7 64-8 0-18 22-26 60-7 33-16 60-20 60s-13-27-20-60-19-64-26-68c-11-6-8-18 11-57 25-52 31-75 17-75-4 0-14 19-22 42-15 41-43 69-56 55-4-4 2-17 13-30 35-38 37-51 5-27-40 30-103 30-142 2-26-19-28-20-23-3 9 33 60 74 93 74 30 0 39 10 20 22-17 11-11 71 11 99 12 15 30 26 45 26 22 0 23 2 14 21-7 11-9 33-5 47 6 25 55 102 65 102 3 0 17-18 32-38m-129-77c-3-13-16-31-30-40-30-20-57-80-49-110 5-21 2-25-57-53-15-8 60 141 93 183 40 51 49 55 43 20m218 3c40-47 76-105 97-156 12-30 18-52 14-50-60 30-61 31-56 58 7 33-17 84-50 105-13 9-26 27-29 40-5 31-1 31 24 3m-105-192c3-15 0-33-9-46-15-21-15-21-21 5-8 30 0 65 14 65 6 0 12-11 16-24m0-137c10-17-13-36-27-22-12 12-4 33 11 33 5 0 12-5 16-11m-242-95c5-14 4-15-9-4-17 14-19 20-6 20 5 0 12-7 15-16m32-42c50-40 56-108 8-99-18 3-24 0-24-14 0-24-10-49-21-49-16 0-10 68 7 78 14 8 14 10 0 21-17 15-22 46-6 36 21-13 31 7 14 26-21 24-6 25 22 1m416 6c-17-17-15-41 3-34s20-15 3-32c-9-9-9-15 0-24 15-15 16-78 2-78-6 0-13 14-17 31-3 18-11 28-18 25-20-7-37 10-37 39 0 26 45 85 66 85 6 0 5-5-2-12"/><path d="M2894 4396c-156-155-164-181-163-514v-227l19 41c10 23 41 60 69 84 56 48 70 78 52 117-15 32-11 36 23 24 20-8 26-7 26 3 0 23-36 46-73 46-20 0-39 5-42 10-4 6 10 10 34 10 30 0 44 6 55 22 22 31 20 47-4 41-16-4-19-2-14 11 4 10 1 16-9 16-8 0-22-18-31-40-16-41-33-49-54-28-28 28-12 83 30 104 56 29 133-8 153-73 4-17 14-23 34-23 21 0 31 8 44 35 21 44 61 70 110 70 45 0 77-31 77-74-1-62-38-66-67-6-16 34-52 52-39 19 4-12 1-14-14-9-26 8-27-15-2-45 12-15 29-22 54-23 49-1 38-17-12-17-31 0-43-5-56-25-20-31-14-41 16-25 28 15 35 8 20-20-19-36-3-75 52-120 27-24 59-61 69-84l19-41-3 260-2 260-28 60c-21 46-53 83-135 162-59 57-107 102-107 101s-46-47-101-102m145 14c25-37 32-55 27-74s-2-26 9-26c29 0 58-40 51-71-4-24-2-29 14-29 32 0 66-20 83-50 24-39 21-45-9-21-34 27-89 27-132 1-34-21-34-12 0 26 22 24 7 44-17 24-19-16-38-77-29-91q6-10.5-3-6c-6 4-13-7-17-24-5-27-8-30-22-18-10 8-13 21-9 37 3 13 2 21-3 18s-14 12-21 33c-12 43-34 66-51 56-8-5-5-14 8-29 34-38 34-47 0-26-43 26-98 26-132-1-38-30-32-3 8 37 24 24 43 34 65 34 29 0 31 2 20 21-15 29 3 67 36 75 20 5 24 11 19 29-3 13 0 34 7 47 14 27 52 77 59 77 3 1 20-21 39-49m-163-95c-20-18-36-41-36-52s-11-25-25-31-25-16-25-22c0-5-5-10-10-10-18 0 21 62 73 118 29 29 53 48 55 42s-12-26-32-45m332-75c12-22 18-40 12-40-5 0-10 5-10 10 0 6-11 16-25 22s-25 20-25 30-16 34-35 54c-19 19-35 40-35 46 0 19 92-77 118-122m-447-273c-10-9-11-8-5 6 3 10 9 15 12 12s0-11-7-18m474 13c-3-5-12-10-18-10-7 0-6 4 3 10 19 12 23 12 15 0m12-25c0-8-5-11-10-8-10 6-27-15-27-34 0-7 7-10 15-7 9 4 15 0 15-9 0-8-7-18-16-21-16-6-16-8 0-24 19-22 22-76 4-70-7 3-14 17-16 32-3 21-7 26-22 21-29-9-44 27-26 62 15 30 42 57 66 66 8 3 15 6 16 6 0 1 1-6 1-14m-428-30c17-20 31-44 31-54 0-24-23-43-43-35-11 4-16-2-19-22-2-15-9-29-15-32-19-6-16 48 3 70 16 16 16 18 0 24-9 3-16 12-16 20s6 11 15 8c18-7 21 26 3 44-8 8-8 12-1 12 6 0 25-16 42-35"/><path d="M2999 4345c-3-6-12-30-19-55s-19-50-27-56c-10-9-7-23 17-73 16-33 34-61 39-61s12 15 15 33c3 17 13 45 21 61 13 24 13 31 2 40s-32 65-41 111c-2 6-4 6-7 0m16-155c-8-39-22-38-30 0s13 72 27 45c5-9 6-29 3-45m-71-189c-2-2-4-10-4-18 0-9 17-13 61-13 51 0 60 3 57 17-2 13-15 17-56 17-30 1-55-1-58-3m26-61c0-42-30-87-108-164-96-93-125-149-124-241 0-33 6-76 15-96l15-36-65-6c-39-3-71-11-80-20-10-9-17-42-20-84l-5-70-36 19q-36 18-102 18c-94 0-154-31-250-130-63-65-85-81-123-91-42-10-47-14-47-40 0-23 5-29 20-29 39 0 95-38 163-110 85-89 145-120 237-120q66 0 102 18l36 19 5-70c2-40 10-75 19-83 8-8 44-17 80-21l66-6-15-36c-9-20-16-63-16-96-1-90 32-153 131-251 66-64 83-88 93-127 11-41 17-47 39-47s28 6 39 47c10 39 28 63 93 128 84 84 121 143 132 212 7 48-9 137-29 157-11 11-3 14 53 19 37 3 75 9 84 12 17 7 32 69 31 131l-1 31 36-19q36-18 102-18c95 0 154 31 248 129 63 66 86 82 125 93 41 11 47 15 47 39 0 23-6 28-46 38-38 10-61 27-133 100-67 68-97 91-135 104-67 23-162 22-209-2l-36-18 1 31c1 50-12 114-28 127-7 6-43 14-78 16l-64 6 16 36c8 20 15 65 15 101 1 89-31 148-133 247-64 64-81 87-92 126-11 42-15 47-40 47-21 0-28-5-28-20m102-162c34-31 38-38 21-38-22 0-60-36-49-47 3-4 12-1 18 5 18 18 52 14 76-8 26-24 28-57 6-88-14-21-14-22 6-22 24 0 60-54 59-90 0-25 0-25-9-2-5 12-16 22-25 22-17 0-20-16-5-25 6-3 10-23 10-43v-37l-29 30c-17 17-31 43-33 60-3 26 0 30 20 28 12-2 22 2 22 7 0 12-33 30-54 30-20 0-56-35-56-54 0-8 29-37 64-65 35-27 67-60 71-71 6-20 8-20 24-6 26 24 61 21 61-5 0-18-3-19-15-9-8 6-19 9-25 5-15-9-12-52 5-59 20-7 19-16-8-49l-22-28-1 49c-1 64-28 108-109 171-35 28-66 60-70 71-10 31 13 78 38 82 36 5 31 57-5 58-11 0-48-42-43-49 6-11-13-36-22-28-4 4-1 18 7 30 7 12 19 50 25 85 11 56 10 67-6 99-16 31-19 33-25 17-4-10-13-26-21-35-11-14-11-26 2-80 19-83 19-87-5-61-23 25-22 24-44 16-25-10-19-43 8-50 28-7 51-53 41-83-6-19-45-56-99-94-44-31-79-96-80-149-1-50-8-52-31-8-13 25-13 29 0 34 15 5 21 47 9 59-4 3-15 2-25-4-16-8-19-6-19 11 0 15 7 20 25 20 14 0 28-7 31-15 9-22 19-19 35 11 7 15 40 46 71 71 32 24 58 51 58 59 0 25-39 55-68 52-30-3-45-37-15-34 29 2 19-53-17-88l-30-31v37c0 20 5 40 10 43 15 9 12 25-5 25-9 0-20-10-26-22-8-19-9-17-4 11 7 46 31 81 55 81s25 6 5 26c-18 19-19 53-2 76 18 23 64 33 82 18 9-7 18-10 22-6 10 10-28 46-50 46-16 0-10 9 26 43 25 23 51 56 57 72l12 30 14-34c8-19 33-52 56-73m-202-43c-7-8-17-15-23-15s-2 7 9 15c25 19 30 19 14 0m279-18c0-9-2-8-6 1-2 6-10 9-15 6-7-4-8-2-4 5 9 13 26 5 25-12m-319-22c-7-9-15-13-17-11-7 7 7 26 19 26 6 0 6-6-2-15m399-137c1-5-2-8-6-8-14 0-39 55-34 75 3 16 7 12 22-20 9-22 18-43 18-47m-409 51c0-5-12-22-26-37l-26-27 16 39c9 21 16 40 16 43 0 2 5 1 10-2 6-3 10-11 10-16m279-202c24-18 52-48 62-67 21-43 33-94 21-86-5 3-12 20-16 37-9 46-49 94-111 134l-54 34-38-22c-61-37-121-102-129-142-3-19-10-35-14-35-13 0 10 72 33 104 11 15 43 43 71 61 29 18 57 40 64 48 11 13 16 12 40-10 15-13 47-39 71-56m-44 0c42-27 50-38 49-62 0-21 8-37 28-53 34-29 39-87 9-123-24-30-39-18-21 16 16 31 6 44-21 27-23-15-41-8-32 13 8 23-14 18-31-7-12-17-16-18-16-6 0 23 27 41 55 36 29-6 57 18 32 28-9 3-24 1-36-5-30-16-36-13-16 9 9 10 15 26 12 33-3 8-1 19 5 25 15 15 0 33-25 30-19-3-22 1-19 25 3 26 2 27-17 15-23-14-36-6-28 17 9 21 15 19 72-18m-87-12c1-19-3-25-18-25-24 0-35-17-21-34 6-7 8-16 5-19-4-4 1-18 10-32 13-19 13-25 3-25-7 0-18 5-24 11-14 14-47 4-38-11 3-5 21-10 39-10 59 0 78-54 30-87-14-10-40-30-58-45s-36-25-39-22c-8 8 18 34 33 34 6 0 13 13 16 30 6 25 10 29 30 24 17-4 26-1 30 10 7 19-12 46-33 46-12 0-13-3-4-14 16-19-5-32-24-16-8 7-22 9-31 6-16-6-16-8 0-24 18-20 21-42 7-42-19 0-41 45-41 81 0 28 7 43 28 61 19 16 28 32 28 53-1 22 7 34 33 52 19 13 35 23 35 23 1 0 3-11 4-25m55-41c22-45 22-55-5-106l-22-42-8 32c-5 17-13 34-18 37-6 3-10 13-10 22 0 18 32 92 40 92 3 1 13-15 23-35m-303 19c-1-20-16-31-30-23-8 6-23 10-33 10-14 0-18-6-15-27 2-20 13-33 38-46l35-18-34 6c-18 3-40 5-47 5-30 0-12 87 20 93 37 7 66 7 66 0m648-8c2-2 6-21 9-44 5-36 3-40-16-38-22 1-28 12-11 22 6 3 10 17 10 31 0 25-22 32-50 14-14-9-29 3-30 24 0 8 79 0 88-9m-638-57c0-19-2-20-10-8-13 19-13 30 0 30 6 0 10-10 10-22m560 8c0-8-4-18-10-21-5-3-10 3-10 14 0 12 5 21 10 21 6 0 10-6 10-14m40-36c0-5-10-10-22-10-19 0-20 2-8 10 19 13 30 13 30 0m-680-25c-6-8-9-19-5-25 9-15 46-12 59 5 10 14 18 11 61-20 28-19 45-35 39-35-5 0-15 5-22 12-6 6-32 11-56 11-58 0-112-35-166-108-23-31-52-61-65-67-33-15-81 6-89 39-5 18-12 23-29 21-31-4-34-37-6-60l24-20-30 8c-16 3-46 10-66 14-19 4-40 10-46 13-6 4-17 0-24-9s-22-19-33-23c-17-7-15-10 16-29 28-17 41-20 64-13 16 5 49 12 74 15l45 6-24-18c-26-21-25-55 2-60 10-2 21 6 28 22 15 33 62 52 93 38 13-6 43-37 68-69 55-72 106-103 173-103h50l-25-20c-27-21-60-26-60-10 0 6-13 10-30 10-32 0-39-16-17-39 10-10 8-12-8-9-26 4-33 48-10 61 14 8 12 12-18 32-19 13-51 47-71 74-39 55-62 63-90 32-22-24-18-75 6-79 13-2 15 2 11 19-6 21-4 22 28 15 19-3 47-20 64-36l30-30h-34c-19 0-43 7-53 17-17 15-18 15-18-4 0-11 10-25 23-32 20-10 19-11-12-6-47 7-81 31-81 56 0 11-3 19-7 17-5-2-21-10-36-18-25-12-30-11-55 7-30 22-40 66-21 89 9 11 8 14-5 14-19 0-50-45-41-60 3-5 1-10-4-10-6 0-11 4-11 9 0 14-73 82-100 93l-25 10 30 12c17 7 47 32 68 55s37 35 37 26c0-18 35-55 52-55 9 0 9 3 0 12-19 19-14 66 8 88 24 24 63 26 80 5 17-20 30-19 30 3 0 28 32 52 76 58 32 4 35 3 17-5-13-6-23-17-23-26 0-17 16-20 25-5 3 6 23 10 43 10h37l-30-29c-17-16-43-32-58-35-24-6-30-3-34 14-8 30-27 19-31-17-2-23 3-35 20-47 35-25 44-20 88 40 23 30 55 63 71 73 26 16 28 20 14 31-24 20-20 60 6 60 18 0 19-3 9-15m728-14c3-15-3-28-13-34-15-8-13-11 14-28 17-10 47-41 66-68 20-28 45-53 56-56 36-12 77 41 59 75-14 26-30 26-30-1 0-18-4-20-32-14-18 4-46 20-63 36l-30 29h37c20 0 40-4 43-10 9-14 25-12 25 3 0 8-10 19-22 25l-23 11h22c37 1 72-17 91-48 16-26 19-28 37-15 25 19 54 18 77-3 20-18 24-73 6-91-17-17 4-15 30 4 12 8 22 25 22 36 0 18 6 14 37-21 20-24 50-49 66-56l30-12-41-23c-23-13-53-39-67-59-19-27-25-31-25-17 0 24-28 56-49 56-12 0-12-3-3-12 19-19 14-65-10-88-26-24-46-25-74-5-20 13-22 12-33-11-6-14-27-32-46-40-44-18-66-18-42 0 9 7 17 21 17 31 0 17-1 17-18 2-19-17-72-24-72-9 0 17 47 52 78 58 28 6 32 4 32-16 0-33 24-19 28 17 3 34-19 63-48 63-12 0-36-22-60-56-23-30-56-64-73-74-26-16-28-20-14-26 21-8 22-53 2-61-9-3-19-2-23 2s-1 10 6 12c6 3 12 11 12 19 0 18-57 19-63 2-3-10-14-8-43 7l-39 19 55 6c72 7 115 33 168 103 24 31 52 62 63 68 32 17 77 1 95-32 18-35 47-36 52-2 3 18-5 27-32 40-34 16-47 33-26 33 6 0 10-4 10-9 0-6 21-13 48-16 26-4 61-11 79-16 27-9 37-7 63 13 20 14 26 24 18 27-7 2-20 10-29 18-14 12-27 12-90-1-77-17-95-15-59 4 14 7 20 19 18 33-4 31-36 34-47 4-5-13-23-30-41-37-40-17-69-4-106 47-73 100-111 125-187 125h-50l24 19c26 20 59 25 59 9 0-5 14-10 30-10 32 0 39 16 18 39-11 10-9 12 7 9 12-2 21-13 23-27m-928-21c0-5-5-10-12-10-6 0-19-7-29-16-11-10-25-14-36-9-14 5-9 11 27 25 25 11 46 19 48 19 1 1 2-3 2-9m1162-12c16-5 25-14 22-19-9-15-27-10-59 17-21 19-24 24-10 19 11-4 32-12 47-17m-1276-20c4-7 4-10-1-6-4 4-15 2-24-5-14-11-14-10-2 6 16 20 18 21 27 5m759-16c3-8 3-18 0-22-3-5 3-11 14-15 10-3 21-15 24-26 4-16 0-15-28 10-19 16-43 32-53 35-36 12-33 32 4 32 19 0 36-6 39-14m644-32c11-22 9-21-13 5-14 17-25 34-26 38 0 13 25-16 39-43m-1029 28c-51-14-95-52-135-114l-35-54 34-52c43-68 68-90 92-82 14 4 15 3 6-4-10-7-7-12 15-20 15-6 37-13 48-15 14-3 12-5-8-6-41-2-102 33-133 76-15 21-40 55-56 76-16 20-24 37-18 37 5 0 25 24 44 53 54 83 98 116 156 115 20 0 18-2-10-10m657-24c19-14 48-48 65-75 16-27 37-53 45-57 13-8 12-13-8-33-13-14-38-46-56-71-33-49-94-88-135-88-17 1-12 5 16 15 57 20 86 44 131 110l40 59-20 22c-14 16-24 20-37 13-25-13-41-11-35 5 8 21-22 44-33 27-4-8-13-10-19-6-7 4-23-1-36-9-28-18-31-15-13 13 6 10 8 27 4 37-7 18-8 18-21 1-7-10-11-27-8-38 6-23-13-49-35-49-12 0-11 4 6 16 25 17 30 39 7 31-20-8-29 11-15 28 7 8 9 22 6 31-6 15-8 15-24 2-22-19-52-30-52-18 0 20 54 50 91 50 36 0 79-28 79-52 0-4 13-5 29-2 23 5 32 0 54-28 15-18 27-27 27-20s-15 29-34 49c-28 31-36 35-49 25-12-10-16-10-20 2-4 11-1 13 11 9 30-11 2 11-31 25l-32 12 34-5c19-3 50-17 68-31m-1087 6c-6-11-15-20-20-20-6 0-2 9 7 20 10 11 19 20 21 20 1 0-2-9-8-20m734 5c3-9 25-24 49-34 35-15 47-27 60-59 9-22 24-45 34-51 17-11 17-11 0-22-10-6-25-28-33-49-12-29-26-44-59-59-24-11-48-28-53-37-8-14-12-13-35 10-14 14-32 26-38 26-17 0-59 41-59 57 0 8-12 26-26 40-23 23-24 27-10 35 9 5 24 28 33 50 13 32 25 44 60 59 24 10 46 25 49 34 4 8 10 15 14 15s10-7 14-15m-186-11c12-8 22-19 22-25 0-14-22-11-42 7-16 16-18 16-24 0-3-9-1-23 6-31 16-19 3-40-16-24-11 9-14 8-14-4 0-21 27-40 45-33 10 3 15 15 13 32-3 30 9 39 32 24 13-8 12-13-6-37-39-52-94-39-94 23 0 35-16 55-25 31-3-7-1-26 4-40 6-15 7-27 2-27s-12 7-15 16c-4 11-13 14-30 10-15-4-26-1-28 6-6 18-28-1-28-24 0-15-5-19-20-15-11 3-20 1-20-4 0-18 30-21 61-5 18 9 38 16 45 16 15 0 84-33 83-40 0-8-73-40-90-40-8 0-23 7-33 15-11 8-30 15-42 15s-24 6-27 13c-2 6-8 9-12 5-10-9 19-38 39-38 9 0 16-8 16-19 0-22 22-41 27-24 2 6 12 9 22 6 10-2 26 3 35 12 24 24 31 12 11-18-11-17-13-27-5-32 19-12 37 13 32 44-3 26 0 31 22 37 34 8 51 1 72-31 15-23 15-28 3-36-22-14-34-4-31 24 3 30-10 41-38 32-24-8-27-37-4-33 10 2 19-3 21-9 3-7 0-13-6-13s-11-9-11-20c0-20 24-28 34-11 3 5 14 11 25 14 26 6 17-17-14-37-40-26-89-21-118 14-18 21-33 28-53 27-23-2-33 6-61 48-18 27-33 52-33 55s15 28 33 55c29 44 37 50 65 49 18-1 32 2 32 7 0 4 10 17 22 29 26 24 84 27 116 4m-138-8c0-2-7-7-16-10-8-3-12-2-9 4 6 10 25 14 25 6m485-44c6-4 10-22 11-40 1-26-1-30-13-20-39 32-38 89 2 60m169-67c11-8 28-15 38-15s18-3 18-8c0-9-69-34-95-34s-95 25-95 34c0 5 8 8 18 8 9 1 28 7 42 15 32 18 50 18 74 0m70-68c-27-50-56-72-80-63-10 4-25-6-41-24-32-39-80-41-120-5-29 25-18 34 17 13 25-16 38-3 22 23-15 23-8 41 13 32 9-3 15 1 15 10 0 18-34 32-51 22-6-4-8-18-5-31 5-18 2-24-11-24-25-1-87-56-79-69 12-19-3-32-24-21-24 13-49-14-34-38 14-22 39-29 31-9-9 23 8 30 33 15 17-11 22-11 30 2 7 10 5 18-3 25-17 13-29 45-17 45 20 0 50-54 50-90 0-30-6-44-29-63-22-18-28-30-24-49 4-20-2-30-26-47-33-24-51-21-51 9 0 13 5 17 19 13 22-6 38 14 23 29-6 6-8 17-5 25 3 7-3 23-12 33-20 22-6 27 25 8 22-14 35-6 26 17-4 11-13 14-31 9-56-14-79 61-27 92 75 47 90 60 101 90q19.5 54 78 39c23-5 25-10 20-41-4-26-2-37 9-41 23-8 27 3 16 36-12 33-3 41 18 16 7-9 21-13 31-10 9 3 20 1 24-5 10-17 35 8 28 27-5 13-2 15 15 11 19-5 21-2 18 23-4 35 3 44 21 26 11-11 9-21-13-60m-997 48c0-8-4-15-9-15-10 0-11 14-1 23 9 10 10 9 10-8m1498-7c-9-6-19-7-22-4-4 3-1 6 6 6s9 4 6 10c-4 6 1 7 11 3 15-6 15-7-1-15m-155 8c0-3-4-8-10-11-5-3-10-1-10 4 0 6 5 11 10 11 6 0 10-2 10-4m-797-170c37-34 11-94-37-82-30 7-59-20-31-30 9-4 21-2 28 5 6 6 17 11 24 11 10 0 10-6-3-25-9-14-14-28-10-32 3-3 1-12-5-19-15-18-1-37 23-31 15 4 19 1 16-15-4-30-20-32-52-7-21 16-27 28-23 47s-2 31-24 49c-23 19-29 33-29 63 0 36 30 90 50 90 12 0 0-32-17-45-8-7-10-15-3-25 8-12 13-13 30-2 29 18 42 15 35-8-3-11-2-20 2-20 15 0 33 23 33 41s-37 33-46 18c-9-16-25 2-19 21 4 13-1 22-15 30-11 6-20 15-20 20 0 10 61-26 93-54m-683 24c8-14 8-20 0-20-6 0-13 7-16 15-4 8-11 12-17 8-6-3-7-1-3 5 11 18 24 14 36-8m1055 10c-3-5-11-10-16-10-6 0-7 5-4 10 3 6 11 10 16 10 6 0 7-4 4-10m415 0c0-5-5-10-11-10-5 0-7 5-4 10 3 6 8 10 11 10 2 0 4-4 4-10m-1435-40c3-5 1-10-4-10-6 0-11 5-11 10 0 6 2 10 4 10 3 0 8-4 11-10m119-36c25-14 46-27 46-29 0-1-27 7-59 18-33 11-58 24-55 29 8 13 18 10 68-18m1199 19c7-7-46-33-67-33-14 0 35 39 50 40 6 0 14-3 17-7m-623-40c0-10 7-27 15-37 19-25 19-55 0-80-19-26-19-55 0-63 13-5 13-8-4-20-16-11-25-11-42-3l-21 12 21 14 20 15-22 45c-21 44-21 46-4 75 9 17 17 37 17 45 0 20 20 17 20-3m-215-23c-11-51 32-129 101-181 76-58 92-85 75-127-8-18-23-33-38-36-18-5-23-12-21-29 4-31 37-34 60-6l19 24-7-40c-3-22-10-55-14-73-6-24-4-40 8-62 20-36 22-36 44-6 16 22 16 30 3 92-19 88-18 94 4 65 22-28 55-25 59 6 2 17-3 24-21 29-15 3-30 18-38 36-17 41-1 68 75 127 32 25 64 57 72 71 7 14 13 20 14 13 0-26-15-45-76-93-35-28-64-57-64-65 0-42 74-72 100-40 10 13 9 15-9 15-12 0-24 6-27 14-7 18 17 65 45 90 21 19 21 19 21-15 0-19-5-40-12-47-6-6-9-14-6-17 9-9 37 6 41 23q4.5 18 6-6c2-35-26-81-54-88-23-6-24-8-10-27 21-30 19-57-7-84-23-25-57-30-76-11-15 15-24 6-16-16 4-9 20-20 36-23l29-6-40-37c-22-20-47-52-55-71l-14-34-11 27c-6 15-28 45-51 66-43 43-48 52-26 52 16 0 46 27 46 41 0 6-7 6-19-1-30-15-52-12-78 12-27 25-29 54-7 86 14 21 14 22-5 22-25 0-48 33-57 81l-7 34 21-25c11-14 24-22 28-17 4 4 2 13-4 19-7 7-12 28-12 47 0 34 0 34 21 15 45-41 63-115 24-100-9 3-15 0-15-9 0-33 72-29 90 6 15 27 0 50-60 93-28 20-56 47-62 61-10 22-13 23-32 10-30-21-56-19-56 5 0 21 15 27 25 10 4-6 11-8 16-5 15 10 10 47-8 60-15 11-15 15 6 44 28 39 34 39 26 1m435-1c20-28 21-31 6-48-29-32-18-68 16-50 17 9 19 8 16-8-5-28-44-28-62-1-12 19-14 32-6 58 5 18 7 44 4 57-8 31 0 29 26-8m-396-40c9-46 41-85 108-129l60-40 61 42c62 44 94 86 107 141l8 32 1-28c2-46-29-98-78-131-25-17-58-43-73-57-24-23-29-25-40-12-7 8-38 32-68 53-31 21-64 50-73 64-18 27-40 109-27 101 4-2 10-19 14-36m-134 11c-19-12-30-12-30-1 0 10 31 20 40 14 2-2-2-8-10-13m666 4c14 6 16 0 11-39-2-25-6-48-8-49-2-2-24-7-48-11-41-7-43-6-36 15 4 14 2 25-5 30-7 4-10 16-7 26 3 15 7 12 17-13 6-18 18-33 25-33s21-3 30-6c13-6 16-1 13 22-2 22-11 33-35 43-41 18-43 34-3 19 17-5 38-7 46-4m-706-13c0-6-4-13-10-16-5-3-10-17-10-31 0-22 3-24 28-18 43 10 46 10 50-9 3-15-2-17-40-11-24 4-44 7-45 8s-5 21-9 44c-6 38-5 42 15 42 11 0 21-4 21-9m66-38c-11-11-17 4-9 23 7 18 8 18 11 1 2-10 1-21-2-24m414 7c0-5-5-10-11-10-5 0-7 5-4 10 3 6 8 10 11 10 2 0 4-4 4-10m-345-250c3-11 11-20 16-20 11 0 12-37 1-44-5-3-16 15-25 40-9 24-12 44-7 44s12-9 15-20m434 13c0-5-8-26-18-48-15-35-18-37-23-18-4 13 0 27 8 34 8 6 14 18 14 25 0 8 5 14 10 14 6 0 10-3 9-7m-217-21c4-12-1-18-13-19-16-2-17 2-9 18 13 24 16 24 22 1m-191-101c6-14 5-20-1-16-6 3-10 12-10 20 0 7-5 16-10 18-6 3-5 4 1 3 7-1 16-12 20-25m386 23c-3-3-12-4-19-1-8 3-5 6 6 6 11 1 17-2 13-5m-7-18c0-2-8-10-17-17-16-13-17-12-4 4s21 21 21 13m-345-46c3-5 1-10-4-10-6 0-11 5-11 10 0 6 2 10 4 10 3 0 8-4 11-10m141-179c-4-5 0-11 6-14 7-2 9-8 5-13-9-10-28 16-21 28 3 4 7 8 10 8s3-4 0-9"/><path d="M2992 3343c-16-30-15-68 3-83 12-10 15-7 21 15 4 14 2 41-3 58-9 31-9 31-21 10m-7-223c-11-12-25-18-36-15-22 7-59-31-59-61 0-13-8-28-17-34-17-10-17-10 0-20 9-6 17-19 17-28 0-28 29-62 52-62 12 0 30-7 40-17 17-15 19-15 37 1 11 10 24 15 29 12 17-10 63 34 57 55-4 11 1 25 14 35 20 17 20 18 1 31-11 8-16 20-13 32 6 25-33 64-58 58-12-3-24 2-33 14-13 19-13 19-31-1m-23-47c17-15 18-15 18 0 0 23 40 22 40 0 1-17 1-17 14 0 14 19 41 14 50-8 2-7-2-19-10-26-13-11-13-14 7-25l23-12-22-13c-18-11-19-15-7-29 11-13 11-18-1-34-13-18-15-19-33-2s-19 17-26-3c-7-23-32-18-37 7-3 14-5 13-21-2-17-18-19-18-32 0-12 16-12 21 0 33s12 16-3 28c-16 12-16 14 0 26 16 13 16 15 1 30-13 13-14 19-3 31 16 20 19 20 42-1"/><path d="M2990 3059c0-7-10-9-26-5-23 6-25 5-19-16 10-32 11-32 36-14 21 14 24 14 41-1 20-18 23-17 33 15 6 21 4 22-19 16-16-4-26-2-26 5 0 6-4 11-10 11-5 0-10-5-10-11"/><path d="M2984 3009c-3-6-2-15 2-19 12-12 38 5 30 19-9 14-23 14-32 0m-54-9c0-5 5-10 10-10 6 0 10 5 10 10 0 6-4 10-10 10-5 0-10-4-10-10"/><path d="m3026 2985-26-25-20 20-20 20-10-26c-13-33-8-39 18-25 28 15 32 14 26-4-8-20 6-19 22 3 12 15 15 15 23 2 6-8 13-11 17-7 4 3 1 13-6 22-10 12-9 16 4 21 9 3 16 10 16 15 0 16-19 9-44-16m-371 23c-19-11-19-11 0-19 32-12 72-10 84 5 9 11 8 15-5 20-24 9-57 7-79-6m606 3c-11-7-10-11 7-20 26-14 34-14 69 0 26 10 27 12 8 19-27 11-67 12-84 1m-276-281c-8-24 3-80 15-80s23 56 15 80c-3 11-10 20-15 20s-12-9-15-20m-1154 529c-84-16-170-65-230-131-31-33-69-75-86-92l-30-31 60-70c81-96 138-141 215-170 62-24 76-25 322-27 238-3 290 1 219 17-16 3-52 31-85 65-58 62-85 72-127 50-22-12-25 0-9 31 15 27-13 26-41-2-16-16-20-30-17-58 2-25-1-38-9-38s-10 9-7 23c9 34-3 58-36 77-29 18-30 18-30-2 0-16-6-21-25-21-23 0-24-2-13-21 7-11 26-23 41-26 33-7 44-27 27-48-19-23-58-18-87 11-49 49-14 139 64 165 30 10 34 15 31 41-2 25-9 33-38 42-42 13-80 66-80 111 0 56 73 98 108 63 19-19 14-38-8-38-12 0-33-12-48-27l-27-28 27-3c17-2 28-10 30-22 3-18 5-18 37 7 29 23 32 30 28 60-3 18-2 33 4 33 5 0 9-14 9-31 0-48 26-88 58-89 9 0 10 5 2 19-16 31-13 43 9 31 39-20 63-11 120 46 31 31 73 64 93 73 37 15 29 16-195 17-127 1-252-2-276-7m6-60c-17-35-18-46-8-79 11-38 83-110 110-110 6 0 11-4 11-10 0-5-6-10-13-10-24 0-95-69-106-103-12-36 0-95 21-108 22-14 2-20-28-9-46 18-74 50-74 85 0 31-2 32-37 31-31-1-39 3-51 27-10 21-18 26-33 22-20-7-55 11-96 48l-22 20 42 34c30 24 49 32 67 29 20-4 29 2 43 26 15 26 22 30 52 26 33-4 35-3 35 27 0 41 51 91 96 94 7 1 3-15-9-40m281 24c9-16 11-16 27 0 17 18 75 24 75 7 0-14-30-28-49-23-13 3-17-3-16-24 0-41-34-42-79-3-20 18-36 37-36 43 0 5 9 2 19-7 19-17 39-7 26 14-3 6 1 10 9 10s19-8 24-17m-393-40c-8-15-24-28-37-30s-34-17-48-33c-14-17-31-30-39-30-19 0 29 51 84 90 51 36 57 36 40 3m235-43c0-5-2-10-4-10-3 0-8 5-11 10-3 6-1 10 4 10 6 0 11-4 11-10m-324-255c15-23 48-41 69-37 9 1 38-48 32-54-5-6-101 63-126 90-20 21-21 26-8 26 9 0 24-11 33-25m339-24c3-5 0-13-6-17-8-5-9-3-4 6 6 10 4 12-9 7-10-4-15-3-11 3 8 13 22 13 30 1m183-23c8-8 8-17 0-31-9-17-8-19 9-15 22 6 53-7 53-22 0-17-58-11-75 7-16 16-18 16-27 0-5-9-16-17-24-17s-12 5-9 10c13 21-6 28-34 12-16-9-27-21-23-27 3-5-1-4-10 2-8 7-19 9-23 5-5-4-5-1-1 6 4 6 14 12 23 12s31 16 50 35c34 36 69 45 91 23"/><path d="M1773 3083c-4-10 0-21 11-27 10-6 25-17 34-24 15-12 15-13-3-7-11 4-33 12-48 19-20 8-30 8-35 0-4-6-34-18-67-27-62-15-61-17 18-37 26-7 47-17 47-21 0-15 34-10 68 11 17 11 32 15 32 10s-13-16-30-25c-29-15-39-38-21-49 5-3 23 7 40 23 18 16 45 36 61 43 17 7 30 20 30 28s-13 21-30 28c-16 7-44 27-61 43-36 34-38 34-46 12m47-71c25-2 49-8 55-13 11-11-31-11-60 0-12 5-25 3-34-6-7-8-20-12-28-9s-21 6-29 6c-12 0-12 2-2 14 7 7 19 11 27 8 10-4 12-1 6 8s-4 11 6 4c8-4 34-10 59-12m1853 246c7-4 20-8 30-8 9 0 46-29 81-65 64-66 87-76 127-55 16 9 19 7 19-8 0-10-5-23-12-30-9-9-8-12 5-12 29 0 57 37 57 74 0 19 4 38 10 41 6 4 7-6 4-24-5-26-1-36 27-62 32-30 34-31 37-10 2 15 11 21 28 21 13 0 24 4 24 9 0 16-53 52-67 47-19-8-28 21-13 39 18 21 66 19 90-5 22-22 27-75 9-114-10-22-48-47-91-60-20-6-26-66-7-66 27 0 81-35 94-61 23-43 19-92-8-117-30-28-73-29-87-2-14 26-5 40 24 40 21 0 56 27 56 43 0 4-11 7-24 7-18 0-26 6-28 22-3 21-4 20-37-7-28-25-32-33-28-62 4-20 2-31-4-28-5 4-9 21-9 38 0 37-24 77-45 77-11 0-13-8-8-32 5-27 3-31-8-20-7 6-28 12-47 12-29 0-43-9-89-59-33-37-66-62-84-66-62-14-24-20 106-17 437 8 393 4 467 39 47 22 84 50 125 94 32 34 73 77 91 97l32 34-47 51c-107 114-139 141-212 176l-76 36h-262c-143 0-256-3-250-7m184-33c19-13 22-13 27 0 3 8 13 15 21 15 9 0 13-4 10-10-13-22 7-29 33-13 24 15 23 13-7-20-19-20-43-40-53-43-25-8-50 14-43 37 5 15 1 19-18 19-14 0-30 7-37 15-11 13-8 15 17 15 16 0 38-7 50-15m153 0c0-12-19-12-23 0-4 9-1 12 9 8 7-3 14-7 14-8m186-1c39-19 68-65 59-94-5-16-1-18 35-13 38 5 41 4 52-25 10-26 16-30 38-26 19 4 36-3 67-28 23-18 42-35 42-38s-20-20-44-39c-34-25-51-32-70-27-18 5-25 2-25-7 0-27-38-50-69-44-24 5-29 3-24-9 8-21-15-71-41-87-11-8-33-17-48-21l-28-6 20 32c11 18 20 43 20 56 0 40-28 91-62 112-18 11-27 20-20 20 21 0 65-26 91-54 26-27 41-26 41 4 0 11-12 22-32 29-17 6-29 14-26 17s23-2 44-11c34-14 41-14 70 0 18 8 46 18 63 21 44 9 39 18-19 33-27 7-50 17-50 22 0 14-38 11-71-7-17-8-33-13-36-10-3 2 9 12 26 21 29 14 39 34 25 48-3 3-26-10-50-28s-53-36-64-40c-11-3-20-10-20-15s8-7 18-4c16 5 16 5-1-6-10-6-28-10-40-8-19 3-14 8 30 37 37 24 56 45 67 73 20 49 20 56-3 101-21 41-15 45 35 21m117-43c49-34 106-91 90-91-5 0-26 16-46 35s-42 35-50 35-22 11-31 25c-21 32-14 32 37-4m-268-50c-6-5-25 10-25 20 0 5 6 4 14-3s12-15 11-17m218-121c4 0 7-4 7-10 0-13-128-8-134 5-3 8 16 10 58 8 33-1 64-2 69-3m106-143c-26-23-60-50-77-60l-31-18 14 28c8 15 19 29 25 29 5 1 14 2 20 3 5 0 26 17 45 37 20 20 39 33 43 29s-14-26-39-48m-321-12c-3-3-9 2-12 12-6 14-5 15 5 6 7-7 10-15 7-18m-113-36c19-17 32-35 29-40s-12-2-20 6c-18 18-36 11-27-10 7-20-6-19-29 2-15 14-21 15-27 4-10-16-81-27-81-12 0 16 36 32 55 24 14-5 16-2 10 17-5 15-2 25 6 31 25 16 48 9 84-22m70-48c3-6-3-9-14-8-11 0-17 5-15 9 7 11 22 10 29-1m-2012 229c0-52 3-60 19-60 15 0 18 8 18 60s-3 60-18 60c-16 0-19-8-19-60"/><path d="M3972 3003c2-44 7-59 19-61 14-3 17 7 17 57 0 54-3 61-20 61s-19-6-16-57m-1241-880c-1-333 14-381 170-534l99-96 99 96c156 149 171 199 170 534-1 206-2 219-15 187-9-19-43-61-76-92-63-59-68-74-43-131 6-15 4-16-20-7-36 14-42 7-21-25 12-18 25-25 50-25 103 0 117-121 15-136-43-6-77 12-106 55-21 31-21 35-7 46 30 21 11 37-45 39s-79-16-49-38c19-14 9-42-27-76-37-35-108-35-136-1-26 31-24 57 6 86 16 17 35 25 58 25 20 0 41 7 50 18 21 23 22 46 2 38-8-3-22-9-30-12-17-7-21 11-5 21 6 3 10 20 10 37 0 25-12 42-59 87-33 31-67 72-75 91-13 32-14 18-15-187m509 73c0-19-8-42-17-51-16-16-16-18 0-27 22-12 22-29 0-21-17 7-16-2 2-52 5-12-9-3-34 23-43 44-51 71-26 92 12 10 18 10 30 0 13-10 15-9 15 9 0 22 16 61 25 61 3 0 5-15 5-34m-452-15c3-27 6-30 18-20 11 9 17 9 29-1 25-21 17-50-24-91-21-22-37-39-34-39 2 0 1-5-2-10-4-6-11-8-16-4-5 3 2 19 16 36 25 30 25 54-1 44-20-8-17 11 3 23 17 9 17 10 0 28-9 11-17 32-17 47 0 39 24 28 28-13m227-191c-3-5-13-6-21-3-12 4-13 8-3 14 15 9 32 2 24-11m-2-35c8-18-11-31-25-17-11 11-3 32 12 32 4 0 10-7 13-15m-23-31c0-4-12-33-27-66-19-42-23-62-15-67 13-8 42-85 42-112 0-39 17-17 29 36 7 30 19 62 28 70 14 14 13 22-11 77-15 33-24 63-21 66 6 6 3 10 35-52 14-28 31-52 38-54 18-5 15 35-3 42-8 3-15 10-15 15s12 3 28-5c39-20 85-17 116 7 22 17 26 18 26 4 0-30-46-65-86-65-31 0-35-3-29-17 27-62 8-116-43-127-25-6-27-10-24-39 3-23-4-42-25-69-15-21-30-37-33-37s-18 16-33 37c-21 27-28 45-25 70 3 26 0 32-14 32-11 0-30 12-44 26-27 26-29 61-9 108 7 16 5 18-9 13-25-10-86 22-97 50-13 35-12 37 17 14 16-13 41-21 64-21s48 8 64 21c30 24 36 11 6-16-21-19-27-45-11-45 14 0 48 52 56 83 6 23 25 39 25 21m27-86c10-23-1-68-17-68s-27 45-17 68c6 12 13 22 17 22s11-10 17-22m-187-91c0-29 7-46 28-66 15-15 32-30 38-32s15-15 19-29c14-49-85 60-116 127-16 35-29 65-29 67 0 3 13-3 30-12 25-14 30-23 30-55m372 1c-31-63-45-83-94-127-26-23-27-23-21-2 3 12 18 31 34 42 37 26 52 55 51 94-1 23 5 34 26 46 15 9 29 14 31 13 2-2-10-31-27-66"/><path d="M2823 2012c-13-8 5-53 33-82 13-13 15-12 20 8 4 12 10 22 15 22 15 0 10 27-7 44s-42 20-61 8m291-18c-11-16-14-28-7-32 5-4 14-16 20-26 10-18 13-16 38 24 21 34 24 44 13 51-24 16-47 9-64-17M1154 3087c-8-21 3-36 33-48 14-5 23-12 20-15-2-3-22 2-43 11-35 15-40 14-81-5-23-11-52-20-62-20-11 0-23-4-26-10-4-6 6-10 22-10s46-9 67-19c35-19 40-19 82-3q45 16.5 39 30c-4 11 4 13 35 10 22-2 40-3 40-2s-17 13-37 25c-21 13-48 34-60 48-19 20-24 21-29 8m19-77c10 0 15-4 12-10-7-12-85-14-85-2 0 16 14 23 35 18 11-3 28-6 38-6m46-31c-13-10-29-19-35-19-19 0-37-28-30-46 5-14 10-12 34 11 15 15 40 36 55 45 19 12 24 19 14 23-7 3-24-4-38-14m1514-1554c4-265 5-276 60-385 19-38 192-235 207-235 3 0 44 41 91 90 160 168 179 228 179 555l-1 225-20-41c-11-22-44-62-74-88-57-49-67-75-44-118 14-27 8-30-24-13-23 12-27 12-27-1 0-26 38-54 75-54 81 0 104-89 33-126-54-28-113-3-147 63-14 28-14 33 4 33 8 0 15 9 15 20 0 18-7 20-60 20s-60-2-60-20c0-11 7-20 15-20 20 0 19-8-5-48-39-63-115-78-160-30-42 45-10 108 55 108 37 0 75 28 75 54 0 13-4 13-27 1-32-17-38-14-24 13 22 42 13 68-41 117-29 26-63 66-76 89l-22 41zm51 119c3-9 6-28 6-42 0-21 2-24 10-12 11 18 43 3 48-23 3-16-67-101-76-92-3 3 0 11 6 17 17 17 15 38-5 38-15 0-15 1 1 19 15 16 15 19 1 31-8 7-15 28-15 46 0 35 13 46 24 18m442-62c-14-14-14-18 1-34 15-17 15-18 0-18-18 0-23-25-7-35 6-3 10-11 10-18 0-6-18 7-40 28-43 42-48 70-17 89 14 8 20 8 27-4 7-11 10-8 10 16 0 16 6 36 13 43 10 10 13 6 15-20 2-19-3-38-12-47m-61-92c-3-5-12-10-18-10-7 0-6 4 3 10 19 12 23 12 15 0m-305-4c0-2-7-7-16-10-8-3-12-2-9 4 6 10 25 14 25 6m150-67c-11-8-12-12-2-16 19-7 14-33-6-33-13 0-18 8-17 30 0 23 4 30 20 30 17 0 18-2 5-11m-25-81c-4-13-15-41-26-64-23-48-23-54-5-54 9 0 18-22 27-65 12-62 29-88 29-45 0 38 24 110 37 110 16 0 17-1-6 51-27 64-34 89-22 89 5 0 12-13 16-30 7-31 41-80 56-80 14 0 11 26-6 40-25 21-17 30 13 14 42-22 86-17 121 12l30 25-10-31c-14-39-44-60-86-60-32 0-43-12-23-25 6-3 10-22 10-41 0-40-36-84-69-84-18 0-19-3-9-25 13-29 1-65-38-109l-26-29-23 29c-38 47-50 81-37 109 10 22 9 25-9 25-33 0-69 44-69 84 0 19 5 38 10 41 20 12 10 25-19 25-34 0-86 39-94 71l-6 21 24-22c35-33 99-38 136-11 33 24 40 14 9-14-21-19-27-45-11-45 15 0 49 49 56 80 4 17 11 30 16 30 6 0 7-10 4-22m29-73c4-16 1-34-8-46-13-20-14-20-19 3-7 27 1 68 13 68 4 0 11-11 14-25m-187-85c0-41 26-86 54-95 10-4 19-12 19-20 0-7 3-22 6-32 13-43-72 68-102 134-19 39-34 74-34 77s13-2 29-11c23-14 28-24 28-53m387 19c-10-24-28-60-40-79-31-48-87-109-80-87 3 10 6 24 6 31s11 18 26 24c29 14 57 72 49 105-4 17 1 26 22 38 15 9 29 15 31 14 2-2-5-22-14-46"/><path d="M2816 1342c-7-12 44-93 55-87 5 4 9 15 9 26s5 17 10 14c13-8 13 11 0 36-11 19-64 27-74 11m294-11c-12-24-13-44-1-37 5 3 12-6 15-19 4-14 11-23 16-20 15 10 50 82 43 89-14 14-63 5-73-13m-524 3140c-4-5-2-12 3-15 5-4 12-2 15 3 4 5 2 12-3 15-5 4-12 2-15-3m809 0c-3-5-2-12 3-15s9 1 9 9c0 17-3 19-12 6m365-395c0-2 8-10 18-17 15-13 16-12 3 4s-21 21-21 13m-1690-11c0-2 6-8 13-14 10-8 14-7 14 2 0 8-6 14-14 14-7 0-13-1-13-2"/><path d="M1949 4002c26-85 37-99 92-127 69-35 162-96 156-102-3-2-22 7-44 20-21 13-62 36-90 51-44 22-56 24-78 14-14-6-25-14-25-18 0-19 38-35 83-35 28 0 52-5 54-11s-10-8-32-6c-41 5-65-11-65-43 0-29 22-47 52-43 18 2 23 9 21 31-2 25 1 27 37 27 35 0 138-35 129-44-2-2-28 1-57 7-54 11-81 5-90-21-6-20 28-25 47-8 25 23 110 15 150-13 53-38 56-20 8 48-45 62-57 94-57 146 0 41 2 45 24 45 33 0 44 34 20 61-9 10-25 19-35 19-26 0-52-44-47-80 3-16 1-30-3-30-12 0-18 40-9 70 7 23 4 35-12 56l-21 26-13-23c-21-37-17-50 36-139 28-46 50-85 50-88 0-17-38 34-81 108-28 49-58 95-68 104-15 14-122 56-142 56-4 0 1-26 10-58m74-1c20-1 65-36 60-47-2-7 4-21 14-31 37-37 63-80 48-80-8 0-11 5-8 10 4 6 0 8-10 4-10-3-17-2-17 3 0 6-7 10-16 10-8 0-13 4-10 8 3 5-11 14-30 21-35 12-61 50-70 98-4 20-2 23 13 14 10-5 21-9 26-10m234-53c-3-8-6-5-6 6-1 11 2 17 5 13 3-3 4-12 1-19m-25-186c-3-9-1-13 4-10s15 0 22-8c15-16 8-18-17-4-23 12-34 37-16 37 8 0 11-7 7-15m-186-7c-1-8-5-17-8-21-5-4-4 16 1 34 3 9 9-1 7-13m1945 284c-62-21-86-41-108-84-28-54-104-167-109-162-3 2 15 37 41 75 53 83 64 121 42 152l-15 21-19-28c-15-21-18-35-12-56 4-16 4-38-1-50-8-19-9-18-9 11-2 60-33 92-71 72s-34-70 6-70c17 0 25-7 30-25 7-28-20-118-42-135-12-11-12-6 1 30 8 23 15 53 15 65 0 28-24 49-46 41-14-5-13-9 5-33 17-20 20-34 15-62-4-20-7-43-7-51s-8-27-18-42c-19-25-25-48-13-48 3 0 31 17 62 38 65 44 111 62 158 62 28 0 33-3 31-21-1-12 6-26 16-33 25-16 52 4 52 40 0 37-43 61-76 43-17-9-20-8-17 3 3 8 22 13 54 14 81 1 112 28 59 52-22 10-34 8-78-14-29-15-71-40-94-56-24-16-43-25-43-19 0 10 98 74 167 110 45 22 65 52 89 130 7 25 14 47 14 49 0 6-29-1-79-19m27-51c-4-28-47-88-64-88-6 0-17-7-24-15s-16-12-21-10c-4 3-11 0-16-7-4-7-16-14-25-14-20-2-13 15 34 80 48 67 122 101 116 54m-234-221c-2-7-14-19-27-26-21-14-21-13-7 5 14 17 31 33 37 34 1 0 0-6-3-13m191-27c-3-5-12-10-18-10-7 0-6 4 3 10 19 12 23 12 15 0m-1362 178c-11-19-13-39-1-32 5 3 7 9 4 12s-1 11 5 19c6 7 9 13 6 13s-9-6-14-12"/><path d="M2270 3881c-14-27-13-44 6-91 19-48 28-48 14 0-8 27-6 39 10 65 11 18 17 35 13 38-12 13-32 7-43-12m-347-16c0-8 4-12 9-9s6 10 3 15c-9 13-12 11-12-6m1862-150-30-14 43 6c32 4 47 1 62-12 21-19 50-14 50 9 0 28-73 35-125 11m-2236-292c-13-16-12-17 4-4 9 7 17 15 17 17 0 8-8 3-21-13M406 3267c3-10 9-15 12-12s0 11-7 18c-10 9-11 8-5-6m-126-77c-43-43-9-130 57-146 12-4 23-12 23-19s6-16 13-19c10-5 10-7 0-12-7-3-13-12-13-19s-12-16-26-19c-67-17-98-102-53-147 16-16 28-20 52-15 35 7 47 21 47 53 0 27-16 38-35 23-18-15-35-5-35 20 0 23 36 50 67 50 21 0 23 4 23 58 0 51-2 58-21 59-35 3-69 31-69 58 0 26 18 33 37 14 16-16 33-2 33 26 0 26-33 55-62 55-10 0-27-9-38-20m66-22c5-7 3-8-5-4-7 5-21 0-32-10-10-9-22-14-26-11-3 4-1 7 6 7s9 5 5 12c-4 6-3 8 4 4 6-3 13-2 17 4 8 13 22 13 31-2m4-333c-7-9-15-13-19-10-3 3 1 10 9 15 21 14 24 12 10-5m5292 359c-23-16-30-58-11-70 6-3 16-1 22 5 19 19 37 12 37-13 0-28-33-56-67-56-21 0-23-4-23-60 0-57 1-60 25-60 30 0 65-32 65-60 0-22-19-27-37-9-16 16-33 2-33-26 0-26 33-55 62-55 30 0 58 37 58 75 0 40-24 69-76 91-19 8-32 18-29 23 6 11 70-21 101-50 12-11 25-32 28-45 5-17 13-24 30-24 14 0 31-3 40-6 13-5 16 1 16 25 0 40-28 68-85 83-25 7-45 16-45 20 0 13 14 10 90-18l71-25 61 29 61 29-44 26c-68 38-80 39-153 12-73-28-86-30-86-15 0 6 8 10 18 10 9 0 36 9 59 19 35 16 43 25 49 56 3 20 4 38 2 40-9 10-78-9-78-21 0-23-52-75-91-91-21-8-37-20-36-25 1-6-4-13-10-15-7-3-13-1-13 4 1 15 25 40 47 47 65 21 95 104 53 146-24 24-48 25-78 4m58-39c14-19 14-19-2-6-10 7-18 18-18 24q0 9 3 6c1-2 9-13 17-24m120-60c0-2-6-5-13-8-8-3-14 1-14 8s6 11 14 8c7-3 13-6 13-8m94-81c13-5 14-9 5-20-13-16-67-18-89-4-13 9-13 11 0 20 17 11 60 13 84 4m-209-15c4-5-5-9-19-9s-26 4-26 8c0 11 39 12 45 1m112-105c-3-3-12-4-19-1-8 3-5 6 6 6 11 1 17-2 13-5"/><path d="M150 3116c0-30 5-40 33-56 17-11 47-23 65-26 33-6 55-24 29-24-7 0-46 11-86 25-78 26-92 25-160-17l-33-21 61-30 61-29 53 21c65 26 123 38 114 24-4-6-24-13-45-17-52-8-92-46-92-87 0-26 3-30 18-24 9 4 27 7 39 6 16 0 24 6 29 24 7 30 68 85 93 85 20 0 33 22 25 43-2 7-20 19-39 26-36 13-85 63-85 87 0 8-9 13-22 13-13-1-31 2-40 6-15 6-18 2-18-29m70-32c0-8-5-14-11-14-5 0-7 5-3 12 5 7 2 9-9 5s-14-2-11 8c7 17 34 8 34-11m-32-76c6-1 12-5 12-9 0-13-88-22-117-11-15 6-22 11-15 11 7 1 11 5 8 10-5 7 62 7 112-1m132-10c0-16-3-19-11-11-6 6-8 16-5 22 11 17 16 13 16-11m-107-88c-5-20-33-29-33-10 0 7 25 27 37 30 0 0-1-9-4-20m201 146c-3-7-4-38-2-67 2-40 7-54 18-54 12 0 16 15 18 68 2 56 0 67-13 67-9 0-18-6-21-14m5138-53c2-51 7-68 17-68 23 0 19 129-3 133-15 3-17-6-14-65m-3266-688c-34-27-126-34-146-10-14 17-36 20-45 5-20-33 60-53 120-30 15 6 24 6 20 1-10-17-92-43-126-39-28 2-34 7-34 28 0 19-6 26-26 28-32 4-53-20-45-52 12-46 97-56 169-20 15 8 27 10 27 5 0-10-52-36-92-46-15-4-42-2-61 4-26 9-41 9-61 0-31-14-30-25 6-52 25-19 26-18 77 3 80 35 69 18-17-26l-77-39-22-65c-12-36-22-68-22-72-1-6 73 14 121 33 31 13 92 127 90 167-1 12 3 22 9 22 5 0 7 5 4 10-3 6-2 10 4 10 18 0 21-18 7-33-8-8-13-17-11-19 3-2-5-28-16-57-18-49-19-55-4-77 8-13 21-24 29-24 20 0 38 48 26 70-15 28-12 70 9 117 11 23 17 44 15 47-2 4 1 2 6-2 7-6 5-21-5-45-35-85-1-174 59-151 18 7 32 47 21 63-3 6-17 11-31 11-22 0-24 4-24 43 0 51 34 132 51 121 8-4 9-3 5 4s5 27 19 46c32 41 14 55-29 21m-231-65c3-6-1-7-9-4-18 7-21 14-7 14 6 0 13-4 16-10m182-20c-1-12-5-16-10-11s-6 14-3 20c11 16 15 13 13-9m-202-70c3-6-1-7-9-4-18 7-21 14-7 14 6 0 13-4 16-10m95-40c0-5-6-13-14-17s-21-24-29-44-30-47-48-59c-18-13-29-17-24-9 8 12 6 12-8 0-25-20-31-8-16 34 14 39 54 68 100 74 5 0 7 5 4 11-4 6 1 7 11 3 12-4 15-3 10 5-4 7-2 12 3 12 6 0 11-4 11-10m120-70c0-5-2-10-4-10-3 0-8 5-11 10-3 6-1 10 4 10 6 0 11-4 11-10"/><path d="M2277 2217c-18-46-3-127 24-127 13 0 19 34 7 41-6 4-14 29-18 56-4 34-7 43-13 30m1788-106c-3-5-2-12 3-15s9 1 9 9c0 17-3 19-12 6M2483 735c0-8 4-12 9-9s6 10 3 15c-9 13-12 11-12-6m510-273c-47-2-63-7-63-17 0-12 15-15 70-15 54 0 70 3 70 14 0 20-6 21-77 18"/></g></svg>